<svg width="32" height="32" viewBox="0 0 32 32" fill="none" xmlns="http://www.w3.org/2000/svg">
<path d="M28 26.6667V8C28 6.52933 26.804 5.33333 25.3333 5.33333H22.6667V2.66666H20V5.33333H12V2.66666H9.33333V5.33333H6.66667C5.196 5.33333 4 6.52933 4 8V26.6667C4 28.1373 5.196 29.3333 6.66667 29.3333H25.3333C26.804 29.3333 28 28.1373 28 26.6667ZM12 24H9.33333V21.3333H12V24ZM12 18.6667H9.33333V16H12V18.6667ZM17.3333 24H14.6667V21.3333H17.3333V24ZM17.3333 18.6667H14.6667V16H17.3333V18.6667ZM22.6667 24H20V21.3333H22.6667V24ZM22.6667 18.6667H20V16H22.6667V18.6667ZM25.3333 12H6.66667V9.33333H25.3333V12Z" fill="#E00F18"/>
</svg>
