<svg width="81" height="69" viewBox="0 0 81 69" fill="none" xmlns="http://www.w3.org/2000/svg">
<path d="M40.4936 13.456C39.1903 13.456 37.9163 13.0758 36.8326 12.3635C35.749 11.6512 34.9044 10.6388 34.4057 9.45421C33.9069 8.26966 33.7764 6.96622 34.0307 5.70872C34.2849 4.45121 34.9125 3.29612 35.8341 2.3895C36.7556 1.48289 37.9298 0.865482 39.208 0.615348C40.4863 0.365215 41.8112 0.493592 43.0153 0.984247C44.2194 1.4749 45.2485 2.3058 45.9726 3.37186C46.6966 4.43792 47.0831 5.69127 47.0831 6.97341C47.0831 8.69271 46.3889 10.3416 45.1531 11.5573C43.9173 12.7731 42.2412 13.456 40.4936 13.456ZM40.4936 3.7321C39.8419 3.7321 39.2049 3.9222 38.6631 4.27836C38.1213 4.63452 37.699 5.14074 37.4496 5.73302C37.2002 6.32529 37.135 6.97701 37.2621 7.60576C37.3893 8.23452 37.7031 8.81206 38.1638 9.26537C38.6246 9.71867 39.2117 10.0274 39.8508 10.1524C40.4899 10.2775 41.1524 10.2133 41.7544 9.968C42.3565 9.72267 42.871 9.30722 43.2331 8.77419C43.5951 8.24116 43.7884 7.61448 43.7884 6.97341C43.7884 6.11376 43.4412 5.28932 42.8233 4.68146C42.2054 4.07359 41.3674 3.7321 40.4936 3.7321Z" fill="#E00F18"/>
<path d="M73.4412 26.4213C73.1526 26.4232 72.8686 26.3506 72.6175 26.2106C72.5187 26.1458 61.1847 19.9387 42.1409 19.9387H38.8462C19.8024 19.9387 8.46845 26.1458 8.36961 26.2106C8.05486 26.3899 7.68864 26.4617 7.32806 26.4148C6.96749 26.3679 6.63283 26.2049 6.37628 25.9513L1.43413 21.0893C1.28145 20.9379 1.16065 20.7583 1.07867 20.5608C0.996689 20.3634 0.955134 20.152 0.956387 19.9387C0.967662 19.7144 1.0262 19.4948 1.1283 19.2939C1.23039 19.0931 1.3738 18.9152 1.54945 18.7718C1.97776 18.318 12.1915 10.2147 38.8462 10.2147H42.1409C68.7956 10.2147 79.0094 18.318 79.4377 18.6908C79.6236 18.8431 79.7732 19.0339 79.8757 19.2496C79.9782 19.4653 80.0311 19.7006 80.0307 19.9387C80.0433 20.1654 80.0072 20.3923 79.9249 20.6045C79.8426 20.8166 79.7159 21.0094 79.553 21.1704L74.6108 26.0323C74.287 26.3062 73.8676 26.4457 73.4412 26.4213ZM38.8462 16.6973H42.1409C58.8289 16.6973 69.7181 21.1866 73.1282 22.8234L75.797 20.198C72.1562 18.1073 61.9095 13.456 42.1409 13.456H38.8462C19.0776 13.456 8.83087 18.1073 5.19016 20.198L7.85892 22.8234C11.269 21.1866 22.1582 16.6973 38.8462 16.6973Z" fill="#E00F18"/>
<path d="M30.6093 41.0072H20.725C19.5445 41.0089 18.4024 40.5947 17.5053 39.8398C16.6082 39.0848 16.0155 38.0389 15.8344 36.8913C15.6532 35.7437 15.8956 34.5702 16.5177 33.5832C17.1398 32.5962 18.1004 31.8608 19.2259 31.5102C19.5436 30.0617 20.3561 28.7641 21.5281 27.8333C22.7001 26.9026 24.1609 26.395 25.6671 26.395C27.1733 26.395 28.6341 26.9026 29.8061 27.8333C30.9781 28.7641 31.7907 30.0617 32.1084 31.5102C33.2338 31.8608 34.1945 32.5962 34.8166 33.5832C35.4386 34.5702 35.681 35.7437 35.4999 36.8913C35.3187 38.0389 34.726 39.0848 33.829 39.8398C32.9319 40.5947 31.7898 41.0089 30.6093 41.0072ZM25.6671 29.6626C24.7933 29.6626 23.9553 30.0041 23.3374 30.612C22.7195 31.2198 22.3724 32.0443 22.3724 32.9039C22.3724 33.3338 22.1988 33.746 21.8899 34.0499C21.5809 34.3538 21.1619 34.5246 20.725 34.5246C20.2881 34.5246 19.869 34.6953 19.5601 34.9993C19.2512 35.3032 19.0776 35.7154 19.0776 36.1452C19.0776 36.5751 19.2512 36.9873 19.5601 37.2912C19.869 37.5952 20.2881 37.7659 20.725 37.7659H30.6093C31.0462 37.7659 31.4652 37.5952 31.7741 37.2912C32.0831 36.9873 32.2567 36.5751 32.2567 36.1452C32.2567 35.7154 32.0831 35.3032 31.7741 34.9993C31.4652 34.6953 31.0462 34.5246 30.6093 34.5246C30.1724 34.5246 29.7533 34.3538 29.4444 34.0499C29.1354 33.746 28.9619 33.3338 28.9619 32.9039C28.9619 32.0443 28.6148 31.2198 27.9969 30.612C27.379 30.0041 26.5409 29.6626 25.6671 29.6626Z" fill="#E00F18"/>
<path d="M60.2622 41.0072H50.3779C49.1974 41.0089 48.0553 40.5947 47.1583 39.8398C46.2612 39.0848 45.6685 38.0389 45.4873 36.8913C45.3062 35.7437 45.5486 34.5702 46.1706 33.5832C46.7927 32.5962 47.7534 31.8608 48.8788 31.5102C49.1965 30.0617 50.0091 28.7641 51.1811 27.8333C52.3531 26.9026 53.8139 26.395 55.3201 26.395C56.8263 26.395 58.2871 26.9026 59.4591 27.8333C60.6311 28.7641 61.4436 30.0617 61.7613 31.5102C62.8868 31.8608 63.8474 32.5962 64.4695 33.5832C65.0916 34.5702 65.334 35.7437 65.1528 36.8913C64.9717 38.0389 64.379 39.0848 63.4819 39.8398C62.5849 40.5947 61.4427 41.0089 60.2622 41.0072ZM55.3201 29.6626C54.4463 29.6626 53.6082 30.0041 52.9903 30.612C52.3724 31.2198 52.0253 32.0443 52.0253 32.9039C52.0253 33.3338 51.8518 33.746 51.5428 34.0499C51.2339 34.3538 50.8148 34.5246 50.3779 34.5246C49.941 34.5246 49.522 34.6953 49.2131 34.9993C48.9041 35.3032 48.7306 35.7154 48.7306 36.1452C48.7306 36.5751 48.9041 36.9873 49.2131 37.2912C49.522 37.5952 49.941 37.7659 50.3779 37.7659H60.2622C60.6991 37.7659 61.1182 37.5952 61.4271 37.2912C61.736 36.9873 61.9096 36.5751 61.9096 36.1452C61.9096 35.7154 61.736 35.3032 61.4271 34.9993C61.1182 34.6953 60.6991 34.5246 60.2622 34.5246C59.8253 34.5246 59.4063 34.3538 59.0973 34.0499C58.7884 33.746 58.6148 33.3338 58.6148 32.9039C58.6148 32.0443 58.2677 31.2198 57.6498 30.612C57.0319 30.0041 56.1939 29.6626 55.3201 29.6626Z" fill="#E00F18"/>
<path d="M27.3145 18.3181H24.0197V28.042H27.3145V18.3181Z" fill="#E00F18"/>
<path d="M56.9674 18.3181H53.6726V28.042H56.9674V18.3181Z" fill="#E00F18"/>
<path d="M40.4936 68.5584C37.9108 68.5282 35.3713 67.9008 33.0804 66.7271C32.8268 66.5857 32.616 66.3808 32.4693 66.1331C32.3225 65.8854 32.2452 65.6038 32.2452 65.3171C32.2452 65.0304 32.3225 64.7489 32.4693 64.5012C32.616 64.2535 32.8268 64.0485 33.0804 63.9072C35.8645 62.2865 38.8462 59.3045 38.8462 55.5932C38.8462 51.8819 35.8645 48.8675 33.0804 47.2792C32.8268 47.1379 32.616 46.9329 32.4693 46.6852C32.3225 46.4375 32.2452 46.1559 32.2452 45.8692C32.2452 45.5826 32.3225 45.301 32.4693 45.0533C32.616 44.8056 32.8268 44.6006 33.0804 44.4593C35.3713 43.2855 37.9108 42.6582 40.4936 42.6279C43.9889 42.6279 47.341 43.9939 49.8126 46.4254C52.2842 48.8568 53.6727 52.1546 53.6727 55.5932C53.6727 59.0318 52.2842 62.3295 49.8126 64.761C47.341 67.1925 43.9889 68.5584 40.4936 68.5584ZM37.3306 64.8958C38.3645 65.1578 39.4261 65.2992 40.4936 65.3171C43.1151 65.3171 45.6292 64.2926 47.4829 62.469C49.3365 60.6455 50.3779 58.1721 50.3779 55.5932C50.3779 53.0142 49.3365 50.5409 47.4829 48.7173C45.6292 46.8937 43.1151 45.8692 40.4936 45.8692C39.4261 45.8871 38.3645 46.0286 37.3306 46.2906C38.7626 47.412 39.9332 48.8229 40.763 50.4278C41.5929 52.0327 42.0628 53.7942 42.141 55.5932C42.065 57.3926 41.596 59.1548 40.766 60.76C39.9359 62.3652 38.7642 63.7758 37.3306 64.8958Z" fill="#E00F18"/>
<path d="M42.1409 16.6973H38.8461V44.2485H42.1409V16.6973Z" fill="#E00F18"/>
<path d="M17.43 63.6965C17.1721 63.6949 16.9182 63.6339 16.6887 63.5182L10.8405 60.6496L4.99228 63.5182C4.70976 63.6602 4.39158 63.7189 4.07597 63.6872C3.76035 63.6556 3.46073 63.535 3.21311 63.3399C2.9753 63.1481 2.7968 62.8947 2.69782 62.6083C2.59883 62.3219 2.5833 62.0139 2.653 61.7193L4.11917 55.9335L1.23625 51.6226C1.07894 51.3834 0.988501 51.1076 0.974041 50.8231C0.95958 50.5386 1.02161 50.2553 1.15388 50.0019C1.2895 49.7371 1.49638 49.5139 1.752 49.3568C2.00762 49.1996 2.30217 49.1144 2.60358 49.1106H6.65614L9.47316 44.9779C9.62386 44.7573 9.82739 44.5765 10.0658 44.4515C10.3043 44.3265 10.5703 44.2612 10.8405 44.2612C11.1107 44.2612 11.3767 44.3265 11.6151 44.4515C11.8536 44.5765 12.0571 44.7573 12.2078 44.9779L15.0248 49.1106H19.0774C19.3754 49.1113 19.6676 49.1916 19.9229 49.3429C20.1782 49.4942 20.387 49.7107 20.5271 49.9695C20.6594 50.2229 20.7214 50.5062 20.7069 50.7907C20.6925 51.0752 20.602 51.351 20.4447 51.5902L17.5618 55.8687L19.0774 61.6869C19.1385 61.9295 19.1417 62.1828 19.0868 62.4269C19.0318 62.671 18.9202 62.8993 18.7607 63.0939C18.6012 63.2885 18.398 63.4441 18.1672 63.5487C17.9363 63.6532 17.684 63.7038 17.43 63.6965ZM10.8405 57.2138C11.0984 57.2154 11.3523 57.2764 11.5818 57.3921L14.9589 59.0128L14.1353 55.9821C14.0818 55.7646 14.0746 55.5386 14.1143 55.3182C14.154 55.0979 14.2397 54.888 14.3659 54.7018L16.0133 52.3519H14.1353C13.8639 52.3505 13.5971 52.2832 13.3586 52.156C13.1201 52.0287 12.9172 51.8455 12.7679 51.6226L10.8405 48.7864L8.91305 51.6226C8.76382 51.8455 8.56092 52.0287 8.32238 52.156C8.08385 52.2832 7.81706 52.3505 7.54572 52.3519H5.68418L7.33156 54.7018C7.45778 54.888 7.54343 55.0979 7.58312 55.3182C7.62282 55.5386 7.61569 55.7646 7.5622 55.9821L6.72203 59.0452L10.0992 57.4245C10.3258 57.2976 10.5799 57.2253 10.8405 57.2138Z" fill="#E00F18"/>
<path d="M12.4881 23.18H9.1933V45.8692H12.4881V23.18Z" fill="#E00F18"/>
<path d="M76.736 63.6965C76.4781 63.6949 76.2242 63.6339 75.9947 63.5182L70.1465 60.6496L64.2983 63.5182C64.0157 63.6602 63.6975 63.7189 63.3819 63.6872C63.0663 63.6556 62.7667 63.535 62.5191 63.3399C62.2813 63.1481 62.1028 62.8947 62.0038 62.6083C61.9048 62.3219 61.8893 62.0139 61.959 61.7193L63.4251 55.9335L60.5422 51.655C60.3849 51.4158 60.2945 51.1401 60.28 50.8555C60.2655 50.571 60.3276 50.2878 60.4598 50.0343C60.5909 49.7634 60.7958 49.5336 61.0518 49.3705C61.3077 49.2075 61.6047 49.1174 61.9095 49.1106H65.9621L68.7791 44.9779C68.9298 44.7573 69.1334 44.5765 69.3718 44.4515C69.6102 44.3265 69.8763 44.2612 70.1465 44.2612C70.4166 44.2612 70.6827 44.3265 70.9211 44.4515C71.1596 44.5765 71.3631 44.7573 71.5138 44.9779L74.3308 49.1106H78.3834C78.6814 49.1113 78.9736 49.1916 79.2289 49.3429C79.4842 49.4942 79.693 49.7107 79.8331 49.9695C79.9653 50.2229 80.0274 50.5062 80.0129 50.7907C79.9984 51.0752 79.908 51.351 79.7507 51.5902L76.8678 55.8687L78.3834 61.6869C78.4445 61.9295 78.4477 62.1828 78.3927 62.4269C78.3378 62.671 78.2262 62.8993 78.0667 63.0939C77.9071 63.2885 77.704 63.4441 77.4731 63.5487C77.2423 63.6532 76.99 63.7038 76.736 63.6965ZM70.1465 57.2138C70.4043 57.2154 70.6583 57.2764 70.8878 57.3921L74.1825 59.0128L73.4412 55.9821C73.3877 55.7646 73.3806 55.5386 73.4203 55.3182C73.46 55.0979 73.5456 54.888 73.6719 54.7018L75.3192 52.3519H73.4412C73.1699 52.3505 72.9031 52.2832 72.6646 52.156C72.426 52.0287 72.2231 51.8455 72.0739 51.6226L70.1465 48.7864L68.219 51.6226C68.0698 51.8455 67.8669 52.0287 67.6284 52.156C67.3898 52.2832 67.123 52.3505 66.8517 52.3519H64.9901L66.6375 54.7018C66.7637 54.888 66.8494 55.0979 66.8891 55.3182C66.9288 55.5386 66.9217 55.7646 66.8682 55.9821L66.0939 59.0452L69.3887 57.4245C69.6202 57.2951 69.8803 57.2228 70.1465 57.2138Z" fill="#E00F18"/>
<path d="M71.7938 23.18H68.4991V45.8692H71.7938V23.18Z" fill="#E00F18"/>
</svg>
