<svg width="75" height="68" viewBox="0 0 75 68" fill="none" xmlns="http://www.w3.org/2000/svg">
<path fill-rule="evenodd" clip-rule="evenodd" d="M58.7178 13.3106L36.8079 51.1711C36.5256 51.6722 36.4032 51.9929 36.3367 52.4341L34.4225 65.0347C34.3211 65.7716 34.7059 66.5519 35.353 66.9217C36.0002 67.2914 36.8697 67.2277 37.4557 66.7676L47.6156 58.6609C47.8963 58.4483 48.0044 58.206 48.1751 57.9267L67.8764 23.9432L69.2311 24.7363C69.7685 25.101 69.7913 25.4708 69.555 25.9112L61.1915 40.3622C60.6981 41.2157 61.0278 42.4401 61.8836 42.9323C62.7394 43.4244 63.9669 43.0956 64.4604 42.242L72.7944 27.791C73.9602 25.564 74.236 23.2907 71.1158 21.4761L69.7612 20.683L70.2029 19.9193C71.54 17.5723 70.7434 14.5167 68.3771 13.1637L65.5206 11.4895C62.8918 9.9671 59.9211 11.1232 58.7178 13.3106ZM63.6358 14.7498L66.4923 16.424C67.2163 16.9186 67.2978 17.3801 66.934 18.0395L46.8794 52.6984C46.2091 52.0821 45.4238 51.5563 44.6118 51.0829C43.7465 50.5785 42.8419 50.1588 41.9025 49.8787L61.9867 15.1904C62.4066 14.4758 62.9275 14.3511 63.6358 14.7498ZM39.9883 53.374C40.6284 53.4575 41.7136 53.7696 42.6976 54.3433C43.6008 54.8698 44.3793 55.61 44.7885 56.1056L38.8693 60.8346L39.9883 53.374Z" fill="#E00F18"/>
<path fill-rule="evenodd" clip-rule="evenodd" d="M55.0199 51.7773C54.7722 51.777 54.5267 51.8253 54.2977 51.9196C54.0687 52.0139 53.8605 52.1524 53.6852 52.327C53.5099 52.5016 53.3707 52.709 53.2758 52.9372C53.1809 53.1655 53.1321 53.4103 53.1321 53.6575C53.1321 53.9046 53.1809 54.1493 53.2758 54.3776C53.3707 54.6058 53.5099 54.8133 53.6852 54.9879C53.8605 55.1625 54.0687 55.3009 54.2977 55.3952C54.5267 55.4895 54.7722 55.5379 55.0199 55.5376H73.1178C73.6172 55.5368 74.096 55.3384 74.4488 54.9859C74.8017 54.6334 75 54.1556 75 53.6575C75 53.1593 74.8017 52.6815 74.4488 52.329C74.096 51.9765 73.6172 51.7781 73.1178 51.7773H55.0199Z" fill="#E00F18"/>
<path fill-rule="evenodd" clip-rule="evenodd" d="M17.7544 0.680629C16.8279 0.767755 16.0423 1.6323 16.0463 2.56047V6.32006H9.47924C6.47819 6.32006 3.9919 7.50768 2.38206 9.316C0.772223 11.1243 -0.0032959 13.4665 -0.0032959 15.7779C-0.0032959 18.0893 0.772223 20.4314 2.38206 22.2397C2.74329 22.6455 3.1438 23.0187 3.58947 23.3558C3.14407 23.6927 2.74329 24.0662 2.38206 24.472C0.772223 26.2803 -0.0032959 28.6224 -0.0032959 30.9338C-0.0032959 33.2452 0.772223 35.5873 2.38206 37.3956C2.74329 37.8014 3.1438 38.1747 3.58947 38.5118C3.1438 38.8489 2.74329 39.2221 2.38206 39.6279C0.772223 41.4363 -0.0032959 43.7783 -0.0032959 46.0898C-0.0032959 48.4012 0.772223 50.7433 2.38206 52.5516C3.9919 54.36 6.47819 55.5475 9.47924 55.5475H31.6542C32.6301 55.5305 33.5062 54.6412 33.5062 53.6677C33.5062 52.6943 32.6301 51.805 31.6542 51.788H9.47924C7.42158 51.788 6.09923 51.0879 5.17971 50.055C4.26019 49.0221 3.76616 47.5667 3.76616 46.0898C3.76616 44.6129 4.26019 43.1574 5.17971 42.1245C6.09923 41.0917 7.42158 40.3916 9.47924 40.3916H39.3404C40.3162 40.3746 41.1923 39.4852 41.1923 38.5118C41.1923 37.5384 40.3162 36.6491 39.3404 36.632C29.3867 36.632 19.433 36.632 9.47924 36.632C7.42158 36.632 6.09923 35.9319 5.17971 34.8991C4.26019 33.8661 3.76616 32.4106 3.76616 30.9338C3.76616 29.4569 4.26019 28.0015 5.17971 26.9686C6.09923 25.9357 7.42158 25.2356 9.47924 25.2356C11.6683 25.2356 13.8573 25.2356 16.0463 25.2356V30.5813C16.052 31.2701 16.4705 31.9399 17.0882 32.2479C17.706 32.556 18.4943 32.4882 19.0501 32.0793L27.502 25.735L35.9538 32.0793C36.5093 32.5049 37.3108 32.5832 37.9385 32.2732C38.5662 31.9632 38.9897 31.2799 38.987 30.5813V25.2356H48.6168C49.5926 25.2185 50.4687 24.3292 50.4687 23.3558C50.4687 22.3824 49.5926 21.4931 48.6168 21.476H38.987V10.0797H73.1183C74.0941 10.0626 74.9702 9.17327 74.9702 8.19985C74.9702 7.22645 74.0941 6.33716 73.1183 6.32006H38.987V2.56047C38.987 1.57623 38.0891 0.680722 37.1023 0.680629H17.9311C17.8722 0.678072 17.8132 0.678072 17.7544 0.680629ZM19.8158 4.44027H35.2176V26.8217L28.6505 21.8872C28.0026 21.4007 27.0308 21.4007 26.3829 21.8872L19.8158 26.8217V23.3558V19.185V4.44027ZM9.47924 10.0797H16.0463V19.185V21.476C13.8573 21.476 11.6683 21.476 9.47924 21.476C7.42158 21.476 6.09923 20.776 5.17971 19.7431C4.26019 18.7102 3.76616 17.2547 3.76616 15.7779C3.76616 14.301 4.26019 12.8455 5.17971 11.8126C6.09923 10.7797 7.42158 10.0797 9.47924 10.0797Z" fill="#E00F18"/>
</svg>
