<svg width="71" height="66" viewBox="0 0 71 66" fill="none" xmlns="http://www.w3.org/2000/svg">
<path d="M20.7624 13.0136C21.5966 13.0136 22.3125 12.429 22.48 11.6113C22.5818 11.0595 22.9069 10.5768 23.3765 10.268C23.8429 9.96262 24.4176 9.85753 24.9627 9.98233C25.4291 10.0414 25.902 9.91336 26.2731 9.62107C26.6409 9.32879 26.8774 8.90186 26.9299 8.43548C26.9792 7.96586 26.838 7.49622 26.5391 7.13496C26.2403 6.77043 25.8101 6.54054 25.3404 6.50113C22.8215 6.13002 20.3683 7.50605 19.3699 9.85092C19.2254 10.199 19.117 10.5603 19.0448 10.9281C18.9528 11.3845 19.0481 11.8575 19.3042 12.245C19.5637 12.6292 19.9643 12.8985 20.4208 12.9872C20.5324 13.0069 20.6474 13.0169 20.7624 13.0136Z" fill="#E00F18"/>
<path d="M25.183 21.8219C25.183 22.285 25.3669 22.7316 25.6953 23.06C26.0237 23.3885 26.4704 23.5724 26.9334 23.5724H30.4376C31.101 23.5724 31.7085 23.198 32.0041 22.6036L33.6166 19.3787L35.7808 25.8779C36.014 26.5774 36.6577 27.0568 37.3934 27.0766H37.4426C38.1585 27.0766 38.8055 26.6431 39.0715 25.9764L42.1323 18.3179H44.4508C45.4163 18.3179 46.2012 17.5363 46.2012 16.5675C46.2012 15.5987 45.4163 14.8171 44.4508 14.8171H40.9467C40.2307 14.8138 39.5871 15.2506 39.321 15.9173L37.5936 20.2359L35.6034 14.2621C35.3801 13.5888 34.7726 13.1192 34.0632 13.0666C33.3571 13.0174 32.6905 13.3983 32.3719 14.0321L29.3539 20.0716H26.9335C25.968 20.0716 25.183 20.8531 25.183 21.8219Z" fill="#E00F18"/>
<path d="M65.4689 21.8219C64.8712 21.8285 64.2767 21.9369 63.7152 22.1437V18.3178C63.7053 15.7332 61.817 13.5394 59.2619 13.1454C59.4524 9.60514 58.1454 6.14698 55.6593 3.61824C51.16 -0.874438 43.0315 -1.84321 35.692 4.54439C28.3553 -1.84321 20.2243 -0.877632 15.7247 3.61824C13.2354 6.14698 11.9283 9.60514 12.1188 13.1454C9.5637 13.5395 7.67534 15.7332 7.66878 18.3178V22.1437C7.1072 21.9369 6.51278 21.8285 5.91511 21.8219C3.01527 21.8219 0.660564 24.1733 0.660564 27.0765V40.2818C0.650712 44.6299 2.37817 48.8008 5.46187 51.8678L7.66878 54.0747V60.354C7.66878 63.2571 10.0202 65.6085 12.9233 65.6085H25.1828C28.0859 65.6085 30.4374 63.2571 30.4374 60.354V54.0747L33.8594 50.6527C34.5622 49.9434 35.1796 49.1486 35.6919 48.2882C36.2042 49.1486 36.8217 49.9434 37.5244 50.6527L40.9464 54.0747V60.354C40.9464 63.2571 43.2979 65.6085 46.201 65.6085H58.4605C61.3636 65.6085 63.715 63.2571 63.715 60.354V54.0747L65.9219 51.8678C69.0057 48.8005 70.7332 44.6297 70.7232 40.2818V27.0765C70.7232 24.1733 68.3687 21.8219 65.4689 21.8219ZM18.2074 6.09443C19.9315 4.3933 22.2632 3.45404 24.6869 3.48027C28.4405 3.67074 31.9644 5.36535 34.4603 8.17649C35.1434 8.85958 36.2501 8.85958 36.9365 8.17649C43.242 1.88087 49.7744 2.68881 53.1827 6.09434C56.5916 9.50324 57.3929 16.0418 51.1039 22.3473L36.9359 36.5152H36.9392C36.2463 37.1753 35.1559 37.1753 34.463 36.5152L20.2858 22.3473C13.9902 16.0418 14.7953 9.50694 18.2074 6.09443ZM31.3833 48.177L27.9612 51.599C27.3011 52.2526 26.9333 53.1458 26.9333 54.0752V60.3545C26.9333 60.8208 26.7494 61.2641 26.421 61.5926C26.0926 61.921 25.6459 62.1082 25.1828 62.1082H12.9233C11.9546 62.1082 11.1697 61.3233 11.1697 60.3545V54.0753C11.173 53.1459 10.8051 52.2526 10.145 51.5991L7.93808 49.3922C5.51444 46.9817 4.15481 43.7009 4.16465 40.2821V27.0768C4.16465 26.108 4.94954 25.3264 5.91504 25.3264C6.88381 25.3264 7.66872 26.108 7.66872 27.0768V35.9338C7.672 37.7269 9.0349 39.2311 10.8214 39.4084C14.2139 39.5726 17.1598 41.8025 18.2369 45.0275C18.4734 45.9667 19.4258 46.5316 20.365 46.2951C21.3042 46.0587 21.8691 45.103 21.6326 44.1671C20.2106 39.5069 16.0398 36.2229 11.1756 35.9338V18.3181C11.1822 17.4379 11.8489 16.7023 12.7258 16.607C13.2052 18.2096 13.9146 19.7335 14.8276 21.1292C14.8276 21.1489 14.8177 21.1653 14.8177 21.185V30.581C14.8177 31.5465 15.6026 32.3314 16.5714 32.3314C17.5369 32.3314 18.3218 31.5465 18.3218 30.581V25.3265L31.9836 38.9883C32.5353 39.5367 33.2053 39.9571 33.9409 40.2132V41.9998C33.9442 44.3183 33.0247 46.5416 31.3793 48.1772L31.3833 48.177ZM67.2193 40.2821C67.2291 43.7008 65.8695 46.9817 63.4458 49.3922L61.2389 51.5991C60.5788 52.2527 60.211 53.1459 60.2142 54.0753V60.3545C60.2142 60.8209 60.027 61.2642 59.6986 61.5927C59.3702 61.9211 58.9269 62.1083 58.4605 62.1083H46.201C45.2322 62.1083 44.4506 61.3234 44.4506 60.3546V54.0754C44.4506 53.146 44.0828 52.2527 43.4227 51.5992L40.0006 48.1772H40.0039C38.3586 46.5417 37.439 44.3184 37.4423 41.9998V40.2132C38.1812 39.9571 38.8512 39.5367 39.4062 38.9883L53.068 25.3265V30.581C53.068 31.5465 53.8529 32.3314 54.8217 32.3314C55.7872 32.3314 56.5721 31.5465 56.5721 30.581V21.1228C57.4817 19.7271 58.1846 18.2099 58.664 16.617C59.5344 16.7123 60.201 17.4413 60.2142 18.3182L60.2043 35.9238H60.201C55.3406 36.2227 51.1767 39.5068 49.7575 44.1669C49.5276 45.1029 50.0991 46.0454 51.0317 46.2786C51.9677 46.5117 52.9135 45.9502 53.1532 45.0175C54.2337 41.7991 57.1795 39.5724 60.5687 39.4115C62.3552 39.2309 63.7149 37.7268 63.7149 35.9337V27.0766C63.7149 26.1078 64.4998 25.3262 65.4685 25.3262C66.434 25.3262 67.2189 26.1078 67.2189 27.0766L67.2193 40.2821Z" fill="#E00F18"/>
</svg>
