<svg width="83" height="100" viewBox="0 0 83 100" fill="none" xmlns="http://www.w3.org/2000/svg">
<g clip-path="url(#clip0_90_5584)">
<path d="M2.98535 85.9477H0.377014V99.3592H2.98535V85.9477Z" fill="white"/>
<path d="M14.4598 94.6215C14.4004 93.7062 14.0693 92.8269 13.5071 92.0931C12.9448 91.36 12.176 90.8031 11.2953 90.4923C10.4146 90.1815 9.46032 90.13 8.55004 90.3438C7.63969 90.5577 6.81299 91.0277 6.17169 91.6962C5.53038 92.3646 5.10243 93.2024 4.94052 94.1054C4.77861 95.0092 4.88979 95.94 5.26039 96.7823C5.63099 97.6254 6.24482 98.3431 7.02636 98.8485C7.80792 99.3531 8.72302 99.6238 9.65913 99.6254C10.316 99.6269 10.9661 99.4962 11.5693 99.2408C12.1725 98.9862 12.7159 98.6123 13.1658 98.1431C13.6159 97.6746 13.9629 97.12 14.1854 96.5138C14.408 95.9085 14.5014 95.2638 14.4598 94.6215ZM11.8835 94.6215C11.8835 96.3154 10.8433 97.7585 9.61112 97.7585C8.37899 97.7585 7.32285 96.3785 7.32285 94.6215C7.32285 92.8646 8.37899 91.6415 9.61112 91.6415C10.8433 91.6415 11.8835 93.0215 11.8835 94.6846" fill="white"/>
<path d="M23.4656 90.56C22.822 90.1631 22.1038 89.8962 21.3534 89.7754C20.8281 89.6585 20.2918 89.5954 19.7531 89.5869C17.4169 89.5869 15.8327 90.7954 15.8327 92.5516C15.8327 93.8223 16.6167 94.7162 18.3289 95.3439L19.9292 95.9716C20.6013 96.2223 20.9053 96.5362 20.9053 96.9593C20.9053 97.3831 20.3612 97.7908 19.4011 97.7908C19.0311 97.7793 18.6647 97.7154 18.313 97.6023C17.6255 97.3523 16.9745 97.0154 16.3767 96.5985L15.5927 98.5754C16.3324 99.0016 17.1375 99.3093 17.9769 99.4846C18.5035 99.5923 19.0393 99.6508 19.5771 99.6577C21.9134 99.6577 23.4336 98.5285 23.4336 96.8023C23.4462 96.4008 23.363 96.0016 23.1908 95.6369C23.0186 95.2723 22.7621 94.9516 22.4415 94.7008C21.5263 94.1669 20.5553 93.73 19.5452 93.3993C18.665 93.1008 18.3289 92.8339 18.3289 92.4108C18.3289 91.9869 18.9531 91.5008 19.9292 91.5008C20.7163 91.5277 21.4828 91.7546 22.1535 92.16L22.8095 92.5677L23.4656 90.56Z" fill="white"/>
<path d="M41.695 99.3592L36.7344 85.9477H34.3982L29.4375 99.3592H32.1739L33.294 96.05H37.8866L38.9588 99.3592H41.695ZM37.1825 93.8692H33.9821L35.5823 89.0223L37.1825 93.8692Z" fill="white"/>
<path d="M51.5838 99.3593V92.41C51.5838 90.6223 50.7197 89.7277 48.9755 89.7277C48.3198 89.75 47.6778 89.9185 47.0983 90.22C46.5188 90.5216 46.0171 90.9493 45.631 91.4693V89.9008H43.2147V99.3116H45.6951V93.6808L46.0151 93.3354C47.1032 92.1908 47.7433 92.1439 48.2714 92.1746C48.7995 92.2062 49.1515 92.1746 49.1515 93.2885V99.3593H51.5838Z" fill="white"/>
<path d="M62.7842 99.3585V85.2415L60.3199 85.9315V90.2923C59.9406 90.0046 59.4959 89.8108 59.0238 89.7277C58.752 89.6592 58.4721 89.6277 58.1917 89.6331C56.8662 89.7377 55.6371 90.3523 54.7732 91.3431C53.9093 92.3339 53.4814 93.62 53.5831 94.9192C53.5831 97.6331 55.1833 99.6254 57.5356 99.6254C58.1767 99.6277 58.8049 99.4477 59.3438 99.1077C59.7569 98.86 60.0942 98.5077 60.3199 98.0877V99.3585H62.7842ZM60.3199 96.2215C60.1113 96.61 59.8079 96.9431 59.4365 97.1892C59.0653 97.4354 58.6376 97.5877 58.1917 97.6331C56.9915 97.6331 56.1914 96.4408 56.1914 94.7315C56.1914 93.0215 57.1995 91.5939 58.5757 91.5939C58.9004 91.5608 59.2276 91.6254 59.5137 91.78C59.7997 91.9339 60.0308 92.17 60.1759 92.4569C60.2691 92.8577 60.3121 93.2692 60.3039 93.68L60.3199 96.2215Z" fill="white"/>
<path d="M73.3931 98.45L72.481 96.5985C71.9176 96.9962 71.2901 97.2985 70.6247 97.4931C70.2583 97.6115 69.8744 97.6692 69.4886 97.6654C69.0587 97.6715 68.6342 97.57 68.256 97.3692C67.8778 97.1685 67.5583 96.8761 67.3283 96.52C67.0747 96.0369 66.9638 95.4938 67.0083 94.9515H73.4091V93.9162C73.4604 93.3662 73.3937 92.8108 73.2133 92.2869C73.033 91.7631 72.743 91.2815 72.3618 90.8738C71.9806 90.4662 71.5167 90.1415 70.9999 89.92C70.483 89.6985 69.9247 89.5846 69.3606 89.5869C68.6898 89.6131 68.0312 89.7708 67.4237 90.0508C66.8164 90.3308 66.2726 90.7277 65.8248 91.2177C65.377 91.7077 65.0342 92.2815 64.8169 92.9038C64.5996 93.5269 64.5123 94.1854 64.56 94.8423C64.5062 95.4623 64.5891 96.0869 64.803 96.6738C65.017 97.26 65.3571 97.7946 65.8003 98.2408C66.2434 98.6869 66.7792 99.0346 67.3714 99.26C67.9636 99.4854 68.5983 99.5838 69.2326 99.5477C70.3373 99.5592 71.4306 99.3285 72.433 98.8731C72.7896 98.7262 73.1369 98.5585 73.4731 98.3715L73.3931 98.45ZM70.9768 93.4146H67.1203C67.3283 92.1285 68.0804 91.3908 69.1846 91.3908C70.2887 91.3908 70.7848 91.9715 70.8968 93.4146" fill="white"/>
<path d="M82.2607 90.56C81.6169 90.1631 80.8986 89.8961 80.1477 89.7754C79.6226 89.6585 79.0866 89.5954 78.5482 89.5869C76.2116 89.5869 74.6274 90.7954 74.6274 92.5515C74.6274 93.8223 75.4114 94.7161 77.1237 95.3438L78.7235 95.9715C79.3961 96.2223 79.7001 96.5361 79.7001 96.9592C79.7001 97.3831 79.1401 97.7908 78.1961 97.7908C77.8524 97.7715 77.5138 97.7085 77.1877 97.6023C76.4557 97.3631 75.761 97.0254 75.1234 96.5985L74.3234 98.5754C75.0711 98.99 75.8813 99.2869 76.7236 99.4538C77.25 99.5623 77.7857 99.62 78.324 99.6262C80.6442 99.6262 82.1801 98.4969 82.1801 96.7715C82.1894 96.37 82.104 95.9723 81.9326 95.6077C81.7604 95.2438 81.506 94.9223 81.1879 94.6692C80.2734 94.1354 79.3022 93.6985 78.2915 93.3677C77.4117 93.0692 77.0757 92.8031 77.0757 92.3792C77.0757 91.9554 77.6996 91.4692 78.6762 91.4692C79.4628 91.4961 80.2292 91.7238 80.9001 92.1285L81.5564 92.5361L82.2607 90.56Z" fill="white"/>
<path d="M15.3562 78.78V74.3878H14.524V78.5446C14.524 79.36 14.524 79.5954 14.1399 79.9408C13.962 80.1315 13.7439 80.2823 13.5008 80.3823C13.2577 80.4823 12.9954 80.53 12.7318 80.5208C12.4682 80.53 12.2059 80.4823 11.9628 80.3823C11.7197 80.2823 11.5015 80.1315 11.3236 79.9408C11.0035 79.5954 10.9395 79.36 10.9395 78.5446V74.3878H10.0915V78.78C10.0462 79.1346 10.0962 79.4946 10.2365 79.8254C10.3768 80.1554 10.6026 80.4438 10.8915 80.6623C11.4164 81.0761 12.0745 81.2931 12.7478 81.2738C13.4162 81.2931 14.0694 81.0761 14.5881 80.6623C14.8637 80.4446 15.0787 80.1623 15.213 79.8415C15.3472 79.5208 15.3965 79.1715 15.3562 78.8269" fill="white"/>
<path d="M21.0192 81.0377V77.65C21.0192 76.8028 20.6191 76.395 19.819 76.395C19.369 76.3978 18.9337 76.5529 18.5868 76.8341C18.3497 77.0185 18.1349 77.2292 17.9468 77.4615V76.5048H17.1787V81.0377H17.9788V78.2769C18.7789 77.3992 19.2909 77.0538 19.755 77.0538C19.849 77.0461 19.9431 77.0661 20.0256 77.1108C20.1081 77.1554 20.1754 77.2231 20.2191 77.3046C20.2566 77.4808 20.2566 77.6623 20.2191 77.8377V80.9754L21.0192 81.0377Z" fill="white"/>
<path d="M23.6286 74.9212C23.6255 74.8258 23.5936 74.7334 23.5373 74.6555C23.4809 74.5776 23.4024 74.5178 23.3115 74.4834C23.2206 74.4489 23.1214 74.4415 23.0263 74.462C22.9311 74.4825 22.8442 74.53 22.7764 74.5986C22.7087 74.6672 22.663 74.7538 22.6451 74.8477C22.6273 74.9415 22.638 75.0385 22.6759 75.1265C22.7139 75.2144 22.7775 75.2895 22.8587 75.3422C22.9398 75.395 23.0351 75.4232 23.1325 75.4232C23.1991 75.4232 23.2648 75.4102 23.3261 75.3848C23.3874 75.3593 23.4428 75.3221 23.4891 75.2753C23.5353 75.2285 23.5715 75.173 23.5955 75.1122C23.6195 75.0513 23.6307 74.9864 23.6286 74.9212ZM23.5006 76.4898H22.7805V81.0231H23.5486L23.5006 76.4898Z" fill="white"/>
<path d="M28.7951 76.5052H27.947L26.6988 80.1915L26.6829 80.3638L26.6668 80.1754L25.3867 76.5052H24.5546L26.2827 81.1792H26.9869L28.7951 76.5052Z" fill="white"/>
<path d="M33.3597 78.7169V78.2777C33.3849 78.0346 33.3569 77.79 33.2775 77.5585C33.1982 77.3277 33.0693 77.1154 32.8995 76.9377C32.7298 76.7591 32.5231 76.6185 32.2933 76.525C32.0636 76.4315 31.8161 76.3871 31.5674 76.3951C31.0253 76.5187 30.5418 76.8185 30.1957 77.2454C29.8495 77.6731 29.6611 78.2024 29.6611 78.7477C29.6611 79.2938 29.8495 79.8231 30.1957 80.25C30.5418 80.6777 31.0253 80.9777 31.5674 81.1008C32.1483 81.0831 32.7084 80.8854 33.1676 80.5361L32.8636 79.9561C32.5301 80.2385 32.1042 80.3946 31.6634 80.3954C30.7193 80.3954 30.1432 79.7361 30.1432 78.6385L33.3597 78.7169ZM32.5115 78.1523H30.2552C30.291 77.85 30.4403 77.5715 30.674 77.3715C30.9078 77.1715 31.2091 77.0638 31.5194 77.07C32.1435 77.07 32.5115 77.4461 32.5115 78.1523Z" fill="white"/>
<path d="M37.1854 76.693C37.0333 76.5241 36.8219 76.4177 36.5933 76.395C36.2413 76.395 35.9532 76.6146 35.3931 77.3361V76.5048H34.625V81.0377H35.3931V78.34C35.8252 77.5554 36.1932 77.1477 36.4813 77.1477C36.7693 77.1477 36.6573 77.1477 36.8013 77.3361L37.1854 76.693Z" fill="white"/>
<path d="M41.1181 79.8623C41.1181 79.1723 40.8301 78.8585 39.8539 78.4508C38.8778 78.0423 38.8939 78.0423 38.7018 77.8546C38.6662 77.8192 38.638 77.7777 38.6187 77.7323C38.5995 77.6862 38.5896 77.6369 38.5898 77.5877C38.5898 77.2423 38.9418 77.0077 39.4539 77.0077C39.6291 76.9846 39.8067 76.9846 39.9819 77.0077C40.2204 77.0723 40.4471 77.1723 40.6541 77.3054L41.0381 76.6937C40.7572 76.5302 40.448 76.4185 40.126 76.3643C39.929 76.3482 39.7309 76.3482 39.5339 76.3643C38.4618 76.3643 37.7737 76.8506 37.7737 77.6346C37.7737 78.1839 38.0937 78.4977 38.9898 78.8739C39.886 79.2508 40.03 79.3292 40.206 79.5954C40.2706 79.6816 40.3043 79.7869 40.302 79.8939C40.302 80.2546 39.95 80.5054 39.4859 80.5054C39.1206 80.4892 38.762 80.4039 38.4298 80.2546L38.0777 80.0662L37.7577 80.7092C38.1016 80.8946 38.4748 81.0216 38.8618 81.0854C39.0749 81.1 39.2888 81.1 39.5019 81.0854C40.51 81.0854 41.1021 80.5839 41.1021 79.7685" fill="white"/>
<path d="M43.488 74.9209C43.488 74.8216 43.4579 74.7245 43.4017 74.642C43.3454 74.5595 43.2655 74.4951 43.1718 74.4571C43.0783 74.4191 42.9754 74.4092 42.876 74.4286C42.7767 74.4479 42.6855 74.4958 42.6138 74.566C42.5422 74.6361 42.4934 74.7256 42.4737 74.823C42.4539 74.9203 42.4641 75.0212 42.5028 75.113C42.5416 75.2047 42.6072 75.2831 42.6915 75.3382C42.7756 75.3934 42.8747 75.4228 42.9759 75.4228C43.0438 75.425 43.1113 75.4135 43.1745 75.3891C43.2376 75.3646 43.295 75.3277 43.343 75.2807C43.391 75.2336 43.4286 75.1774 43.4536 75.1155C43.4785 75.0536 43.4902 74.9874 43.488 74.9209ZM43.36 76.4895H42.5919V81.0223H43.36V76.4895Z" fill="white"/>
<path d="M48.9126 81.0384V74.3878H48.1445V76.7092C47.8222 76.4886 47.4324 76.3834 47.0403 76.4112C46.7124 76.4101 46.388 76.4758 46.0873 76.6041C45.7867 76.7324 45.5165 76.9204 45.2939 77.1561C45.0713 77.3923 44.9011 77.6708 44.794 77.9746C44.6869 78.2784 44.6454 78.6008 44.672 78.9208C44.6027 79.3408 44.6754 79.7708 44.8792 80.1461C45.0829 80.5208 45.4065 80.8208 45.8003 80.9984C46.194 81.1761 46.6364 81.2231 47.0598 81.1308C47.4831 81.0392 47.8641 80.8138 48.1445 80.4892V81.0538L48.9126 81.0384ZM48.1445 79.6584C47.9996 79.8446 47.827 80.0085 47.6323 80.1446C47.373 80.3354 47.0605 80.4454 46.7362 80.4584C46.0162 80.4584 45.5041 79.7992 45.5041 78.8892C45.4719 78.6661 45.4892 78.4385 45.555 78.2215C45.6209 78.0054 45.7337 77.8054 45.8855 77.6354C46.0375 77.4654 46.2251 77.33 46.4354 77.2377C46.6457 77.1454 46.8739 77.0992 47.1043 77.1015C47.2806 77.0792 47.4598 77.1038 47.6231 77.1731C47.7864 77.2423 47.9278 77.3523 48.0324 77.4938C48.114 77.6815 48.147 77.8861 48.1285 78.0892L48.1445 79.6584Z" fill="white"/>
<path d="M54.079 80.5362C53.839 80.5362 53.7111 80.4108 53.695 80.3008V77.5246C53.695 76.8185 53.103 76.395 52.1908 76.395C51.2787 76.395 50.5106 76.8029 50.5106 77.3993C50.5081 77.5008 50.5421 77.6008 50.6066 77.6816L51.3747 77.5246C51.3657 77.4669 51.3657 77.4093 51.3747 77.3516C51.3747 77.0854 51.6148 76.96 52.0948 76.96C52.5749 76.96 52.9589 77.1477 52.9589 77.5246V78.34L51.3587 78.7162C51.0592 78.7631 50.788 78.9169 50.5986 79.1492C50.4091 79.3816 50.315 79.6746 50.3346 79.9716C50.3251 80.1316 50.3506 80.2923 50.4094 80.4423C50.4681 80.5923 50.5588 80.7277 50.6754 80.8408C50.7921 80.9539 50.9319 81.0408 51.0856 81.0962C51.2393 81.1523 51.4033 81.1746 51.5668 81.1631C51.908 81.1585 52.243 81.0723 52.5429 80.9123C52.7204 80.8031 52.8866 80.6769 53.0389 80.5362C53.0389 80.9754 53.295 81.1323 53.9351 81.1792L54.079 80.5362ZM52.9109 79.9085C52.2548 80.3792 52.0148 80.4893 51.6788 80.4893C51.5964 80.4962 51.5135 80.4854 51.4357 80.4577C51.3579 80.4308 51.2869 80.3877 51.2277 80.3308C51.1685 80.2739 51.1225 80.2062 51.0926 80.13C51.0627 80.0546 51.0498 79.9739 51.0547 79.8931C51.0491 79.7223 51.0935 79.5531 51.1827 79.4069L52.9109 78.9677V79.9085Z" fill="white"/>
<path d="M59.2665 81.0384V74.3878H58.4823V76.7092C58.1645 76.4798 57.7712 76.3737 57.3782 76.4112C57.0517 76.4123 56.729 76.4796 56.4303 76.6088C56.1316 76.7381 55.8633 76.9261 55.6424 77.1623C55.4216 77.3977 55.2528 77.6754 55.1467 77.9784C55.0406 78.2808 54.9995 78.6023 55.026 78.9208C54.9904 79.1969 55.0131 79.4769 55.0928 79.7431C55.1724 80.01 55.3073 80.2577 55.489 80.4715C55.6707 80.6846 55.8952 80.8592 56.1487 80.9838C56.4022 81.1084 56.6791 81.18 56.9622 81.1954C57.2661 81.2046 57.5682 81.1461 57.8455 81.0238C58.1227 80.9015 58.3679 80.7184 58.5624 80.4892V81.0538L59.2665 81.0384ZM58.4823 79.6584C58.3468 79.8469 58.179 80.0115 57.9863 80.1446C57.727 80.3354 57.4144 80.4454 57.0902 80.4584C56.3861 80.4584 55.8581 79.7992 55.8581 78.8892C55.8258 78.6661 55.8432 78.4384 55.909 78.2215C55.9748 78.0054 56.0876 77.8054 56.2395 77.6354C56.3914 77.4654 56.579 77.33 56.7894 77.2377C56.9997 77.1454 57.2279 77.0992 57.4583 77.1015C57.9384 77.1015 58.2583 77.2423 58.3864 77.4938C58.4762 77.6792 58.5096 77.8861 58.4823 78.0892V79.6584Z" fill="white"/>
<path d="M67.3144 81.0384V74.3878H66.5303V76.7092C66.2166 76.4835 65.8298 76.3776 65.4422 76.4112C65.1143 76.4101 64.7898 76.4758 64.4892 76.6041C64.1886 76.7324 63.9184 76.9204 63.6958 77.1561C63.4731 77.3923 63.303 77.6708 63.1959 77.9746C63.0889 78.2784 63.0473 78.6008 63.0739 78.9208C63.0383 79.1969 63.061 79.4769 63.1407 79.7431C63.2203 80.01 63.3552 80.2577 63.5369 80.4715C63.7186 80.6846 63.9431 80.8592 64.1966 80.9838C64.4501 81.1084 64.727 81.18 65.0101 81.1954C65.314 81.2046 65.6161 81.1461 65.8934 81.0238C66.1706 80.9015 66.4158 80.7184 66.6103 80.4892V81.0538L67.3144 81.0384ZM66.5303 79.6584C66.3947 79.8469 66.2269 80.0115 66.0342 80.1446C65.7749 80.3354 65.4624 80.4454 65.1381 80.4584C64.434 80.4584 63.906 79.7992 63.906 78.8892C63.8737 78.6661 63.8911 78.4384 63.9569 78.2215C64.0227 78.0054 64.1355 77.8054 64.2874 77.6354C64.4394 77.4654 64.6269 77.33 64.8373 77.2377C65.0476 77.1454 65.2758 77.0992 65.5062 77.1015C65.6849 77.0777 65.8668 77.1023 66.0329 77.1708C66.199 77.24 66.3431 77.3515 66.4503 77.4938C66.5241 77.6831 66.5514 77.8877 66.5303 78.0892V79.6584Z" fill="white"/>
<path d="M72.5445 78.7169V78.2777C72.5693 78.0377 72.5421 77.7954 72.4646 77.5661C72.3872 77.3377 72.2612 77.1269 72.0949 76.9492C71.9287 76.7716 71.726 76.6304 71.5001 76.5348C71.2742 76.4393 71.0303 76.3917 70.7842 76.3951C70.2422 76.5187 69.7587 76.8184 69.4125 77.2454C69.0663 77.6731 68.8779 78.2024 68.8779 78.7477C68.8779 79.2938 69.0663 79.8231 69.4125 80.25C69.7587 80.6777 70.2422 80.9777 70.7842 81.1008C71.3507 81.1169 71.9087 80.9631 72.3845 80.6615L72.0804 80.0815C71.7455 80.3615 71.3205 80.5169 70.8802 80.5208C69.9361 80.5208 69.2801 79.8615 69.2801 78.7638L72.5445 78.7169ZM71.7123 78.1523H69.4401C69.4793 77.8515 69.6295 77.5746 69.8625 77.3754C70.0955 77.1761 70.395 77.0669 70.7042 77.07C71.3443 77.07 71.6964 77.4461 71.7123 78.1523Z" fill="white"/>
<path d="M19.3056 21.0559C18.027 25.088 17.3849 29.2881 17.4014 33.5104V33.6045C17.4014 51.6118 28.3307 65.7603 41.4044 65.7603C54.4781 65.7603 65.4075 51.6431 65.4075 33.6045V33.4791C65.4231 29.2247 64.7755 24.9931 63.4872 20.9305C59.6628 9.36999 51.1017 1.46441 41.3404 1.46441C31.5791 1.46441 23.0021 9.40137 19.3056 21.0559ZM16.5852 33.5104C16.5695 29.2086 17.2224 24.9296 18.5215 20.8206C22.282 8.97791 31.0831 0.664429 41.3404 0.664429C51.5977 0.664429 60.3829 8.93084 64.1594 20.7422C65.4719 24.8701 66.1303 29.171 66.1116 33.4947V33.6045C66.1116 51.8157 55.0221 66.5446 41.3404 66.5446C27.6587 66.5446 16.5852 51.8 16.5852 33.6045V33.5104Z" fill="white"/>
<path d="M39.6766 5.05715C39.6226 4.78458 39.5073 4.52725 39.3391 4.30391C39.1708 4.08056 38.9538 3.89682 38.7039 3.76608C38.4541 3.63534 38.1775 3.5609 37.8945 3.54817C37.6116 3.53544 37.3294 3.58474 37.0683 3.69249C35.9801 3.95914 35.6601 4.11601 35.5641 4.22581C35.4681 4.33561 35.5641 4.33561 35.5641 4.39834H36.0761L36.8763 7.5355L36.5562 7.69235C36.4122 7.69235 36.3802 7.86489 36.4442 7.99035L37.2923 7.77081L38.1885 7.56687C38.4631 7.52277 38.7247 7.42016 38.9546 7.26625C39.1845 7.11235 39.3772 6.91091 39.5191 6.67612C39.661 6.44132 39.7486 6.17889 39.7758 5.90731C39.8031 5.63571 39.7692 5.36157 39.6766 5.10421V5.05715ZM38.1724 7.23747C37.9221 7.30766 37.6644 7.34975 37.4043 7.36296L36.6042 4.22581C38.0444 3.86503 38.8445 4.22581 39.1485 5.51204C39.2122 5.69202 39.2372 5.88298 39.2219 6.07289C39.2066 6.2628 39.1514 6.44755 39.0597 6.61551C38.968 6.78348 38.8418 6.93103 38.6892 7.04886C38.5364 7.1667 38.3605 7.25227 38.1724 7.30021" fill="white"/>
<path d="M47.0048 6.01371C47.1097 5.80432 47.1657 5.57461 47.1688 5.34131C47.1717 5.10801 47.1215 4.87701 47.0218 4.66513C46.9222 4.45324 46.7756 4.26581 46.5927 4.11651C46.4098 3.96719 46.1953 3.85975 45.9646 3.80202C45.685 3.71223 45.3888 3.68256 45.0965 3.71504C44.804 3.74752 44.5222 3.84137 44.2701 3.99023C44.018 4.13907 43.8017 4.33942 43.6357 4.57762C43.4697 4.81582 43.3581 5.08628 43.3083 5.37059C43.1966 5.57714 43.1335 5.80554 43.1235 6.03908C43.1135 6.27262 43.1568 6.50541 43.2504 6.72041C43.3439 6.93541 43.4853 7.1272 43.6643 7.28174C43.8432 7.43629 44.055 7.54969 44.2844 7.61366C44.5679 7.71151 44.8698 7.74744 45.169 7.71905C45.4682 7.6906 45.7574 7.59848 46.0165 7.4491C46.2755 7.29971 46.4982 7.09667 46.6689 6.85416C46.8396 6.61165 46.9542 6.33552 47.0048 6.04508V6.01371ZM46.3647 6.04508C46.0286 7.08034 45.3566 7.42543 44.6204 7.19014C43.8844 6.95485 43.5803 6.34311 43.9484 5.21374C44.2524 4.31965 44.8765 3.84907 45.6446 4.10004C46.4127 4.35102 46.6687 5.18237 46.3647 6.09214" fill="white"/>
<path d="M49.9837 10.1858C49.8075 9.91851 49.708 9.60967 49.6957 9.29167L49.5196 7.72313C49.7686 7.76905 50.0259 7.73967 50.2575 7.6388C50.489 7.53793 50.6837 7.37039 50.8158 7.15844C51.1678 6.60943 50.9598 5.99769 50.2237 5.58986C49.4876 5.18203 48.9435 4.86831 48.8475 5.02517C48.7515 5.18203 48.8475 5.02517 48.8475 5.1036L49.2315 5.41731L47.4713 8.17797L47.1033 8.0682C47.0766 8.04467 47.0438 8.0289 47.0085 8.02274C46.9731 8.01651 46.9367 8.0202 46.9034 8.03328C46.8701 8.04628 46.8411 8.06828 46.8199 8.09667C46.7986 8.12497 46.786 8.15859 46.7832 8.19367L47.3914 8.53874L48.0154 8.94659C48.0646 8.98751 48.1269 9.00997 48.1914 9.00997C48.2559 9.00997 48.3183 8.98751 48.3674 8.94659L47.8554 8.50744L48.5435 7.4094L48.9115 7.64469L49.0235 9.21328C49.0235 9.80936 49.2156 9.9819 49.5196 10.1701C49.5774 10.2121 49.6476 10.2348 49.7196 10.2348C49.7916 10.2348 49.8617 10.2121 49.9197 10.1701L49.9837 10.1858ZM50.1917 7.03294C50.1358 7.14544 50.0548 7.24412 49.9546 7.32164C49.8544 7.39916 49.7377 7.45351 49.6131 7.48065C49.4885 7.50779 49.3592 7.50702 49.235 7.47839C49.1108 7.44976 48.9947 7.394 48.8955 7.31529L48.6875 7.17412L49.6476 5.60554L49.9036 5.7624C50.0129 5.81623 50.1088 5.89301 50.1843 5.98728C50.2599 6.08156 50.3133 6.191 50.3409 6.30782C50.3683 6.42464 50.3693 6.54597 50.3434 6.66317C50.3177 6.78037 50.2659 6.89056 50.1917 6.98589" fill="white"/>
<path d="M29.1795 12.1152C28.6674 11.6917 28.2354 11.8015 27.5793 12.1152C26.9232 12.4289 26.7151 12.5074 26.4271 12.2721C26.303 12.1488 26.2334 11.9825 26.2334 11.8094C26.2334 11.6362 26.303 11.4699 26.4271 11.3466C26.5692 11.1566 26.7487 10.9966 26.9552 10.8761L27.3872 11.2525C27.4237 11.2263 27.4532 11.192 27.4736 11.1525C27.494 11.113 27.5046 11.0693 27.5046 11.0251C27.5046 10.9808 27.494 10.9372 27.4736 10.8976C27.4532 10.8581 27.4237 10.8239 27.3872 10.7976L26.9072 10.3428C26.6416 10.5512 26.3953 10.7821 26.1711 11.0329C26.0501 11.1497 25.9541 11.2889 25.8885 11.4424C25.8229 11.5959 25.7892 11.7606 25.7892 11.927C25.7892 12.0934 25.8229 12.2582 25.8885 12.4116C25.9541 12.5652 26.0501 12.7043 26.1711 12.8211C26.5071 13.1035 26.9392 13.0878 27.5153 12.8211C28.0913 12.5545 28.6354 12.4132 28.9074 12.6485C29.0302 12.7881 29.0977 12.9662 29.0977 13.1505C29.0977 13.3348 29.0302 13.5129 28.9074 13.6525C28.5234 14.1073 28.1714 14.1701 27.7073 13.8093C27.624 13.8965 27.5777 14.0115 27.5777 14.1309C27.5777 14.2502 27.624 14.3652 27.7073 14.4524C28.1074 14.7818 28.6194 14.5465 29.0515 14.0289C29.3181 13.7863 29.48 13.4529 29.5037 13.097C29.5275 12.7412 29.4116 12.3899 29.1795 12.1152Z" fill="white"/>
<path d="M30.9242 8.13075L30.076 7.39349C29.7328 7.80244 29.3583 8.18529 28.9559 8.53859C28.5878 8.88367 28.1878 9.21306 27.7237 9.65221L28.3958 10.5307C28.5559 10.4365 28.5878 10.3424 28.3958 9.98167L28.2358 9.63659C28.4118 9.44836 28.6679 9.22875 28.8919 9.02482L31.1801 11.362L30.9561 11.7227C30.933 11.7387 30.9142 11.7598 30.9011 11.7844C30.8881 11.809 30.8813 11.8362 30.8813 11.8639C30.8813 11.8916 30.8881 11.9189 30.9011 11.9434C30.9142 11.9681 30.933 11.9892 30.9561 12.0051C31.1411 11.7998 31.3388 11.6061 31.5482 11.4247C31.7402 11.2208 31.9482 11.064 32.0602 10.9541C32.0872 10.9321 32.1088 10.9045 32.1236 10.8733C32.1385 10.8421 32.1462 10.8082 32.1462 10.7737C32.1462 10.7394 32.1385 10.7054 32.1236 10.6742C32.1088 10.6431 32.0872 10.6154 32.0602 10.5934L31.5002 10.9698L29.3559 8.63267C29.5958 8.42913 29.8204 8.20898 30.028 7.9739L30.4921 8.24052C30.6841 8.35036 30.7961 8.33467 30.9242 8.13075Z" fill="white"/>
<path d="M34.2387 4.69519L33.2306 5.27556C33.0386 5.36968 33.0226 5.52654 33.1026 5.62065L33.5667 5.46379L34.2387 8.38138L31.9024 6.40494L32.1744 6.21671C32.2092 6.1972 32.2397 6.17116 32.2641 6.14008C32.2885 6.109 32.3065 6.07349 32.3169 6.0356C32.3273 5.99771 32.33 5.95818 32.3248 5.91927C32.3196 5.88036 32.3065 5.84284 32.2864 5.80888L31.1343 6.452C30.9743 6.54611 30.8943 6.71865 31.0063 6.85982L31.3744 6.70297L34.3988 9.29114C34.5226 9.20514 34.6156 9.08307 34.6645 8.94222C34.7133 8.80138 34.7156 8.64899 34.6708 8.50684L33.9827 5.36968C34.3507 5.21282 34.4147 5.02459 34.2547 4.77362" fill="white"/>
<path d="M42.1601 6.81286L41.568 6.70306V3.42473H41.856C42.064 3.42473 42.128 3.42473 42.1121 3.15808H40.8479C40.6079 3.15808 40.4959 3.23651 40.5278 3.42473H41.0079V6.70306L40.6398 6.78149C40.3838 6.81286 40.3838 6.93835 40.3838 7.01677H41.1359H41.824C41.8589 7.02113 41.8944 7.0184 41.9281 7.00874C41.9619 6.99908 41.9933 6.9827 42.0203 6.96062C42.0474 6.93854 42.0694 6.91124 42.0852 6.88042C42.101 6.8496 42.1101 6.81593 42.1121 6.78149" fill="white"/>
<path d="M55.0378 9.55882L54.1897 8.7589C54.0297 8.61775 53.8856 8.63336 53.8216 8.7589L54.1097 9.13536L51.4373 10.5784L52.7175 7.83344L52.9895 8.03736C53.0178 8.06528 53.0515 8.08751 53.0885 8.10267C53.1256 8.11782 53.1654 8.12567 53.2056 8.12567C53.2457 8.12567 53.2855 8.11782 53.3226 8.10267C53.3596 8.08751 53.3933 8.06528 53.4216 8.03736L52.4774 7.14325C52.3174 7.01777 52.1254 6.98639 52.0454 7.14325L52.2854 7.45697L50.5732 10.9863C50.6949 11.0707 50.8402 11.116 50.9892 11.116C51.1383 11.116 51.2837 11.0707 51.4053 10.9863L54.3977 9.41767C54.6378 9.70005 54.8457 9.71575 55.0378 9.41767" fill="white"/>
<path d="M55.1354 16.0994L54.9753 15.6601L57.5196 13.574C57.8397 13.9191 57.9997 13.9661 58.1277 13.8249L57.5036 12.8994L54.3033 13.6994L56.2395 10.9858L55.8074 10.3584C55.6794 10.1544 55.5034 10.1701 55.4074 10.3584L55.5994 10.8446L52.7031 12.3347L52.415 12.0838C52.3763 12.0474 52.3247 12.0271 52.271 12.0271C52.2173 12.0271 52.1657 12.0474 52.127 12.0838L52.511 12.6171C52.6391 12.7897 52.7511 12.9779 52.847 13.1191C52.8601 13.1494 52.8798 13.1764 52.9049 13.1983C52.93 13.2201 52.9598 13.2361 52.992 13.2451C53.0243 13.2542 53.0582 13.256 53.0913 13.2504C53.1243 13.2449 53.1558 13.2322 53.1831 13.2132L52.9431 12.6798L55.2794 11.378L53.3271 13.9817C53.4117 14.0531 53.5127 14.1033 53.6214 14.1279C53.7301 14.1524 53.8433 14.1507 53.9512 14.123L56.8156 13.4014L54.6553 15.2053L54.3673 14.9386C54.3493 14.9186 54.3271 14.9025 54.3022 14.8915C54.2774 14.8806 54.2505 14.8749 54.2232 14.8749C54.196 14.8749 54.1691 14.8806 54.1442 14.8915C54.1194 14.9025 54.0972 14.9186 54.0792 14.9386L54.4633 15.4719L54.7993 15.9739C54.8106 16.0055 54.8292 16.0341 54.8535 16.0577C54.8779 16.0812 54.9075 16.0989 54.9399 16.1095C54.9723 16.1201 55.0068 16.1233 55.0406 16.1188C55.0745 16.1144 55.107 16.1023 55.1354 16.0837" fill="white"/>
<path d="M22.7814 50.7014L23.3735 51.6895C23.4855 51.8621 23.6455 51.8778 23.7415 51.7837L23.5655 51.3444L26.5259 50.6386L24.5576 52.9601L24.3816 52.6934C24.3604 52.6585 24.3322 52.6282 24.2986 52.6044C24.265 52.5806 24.2267 52.5638 24.1863 52.555C24.1458 52.5461 24.1039 52.5455 24.0632 52.5531C24.0226 52.5608 23.9839 52.5765 23.9496 52.5993L24.6216 53.6973C24.7337 53.8699 24.9097 53.9326 25.0377 53.8071L24.8937 53.4778L27.47 50.4504C27.3786 50.3335 27.2531 50.2469 27.1101 50.202C26.9671 50.1571 26.8135 50.1562 26.6699 50.1994L23.4695 50.9366C23.3095 50.6072 23.1175 50.5288 22.8774 50.7014" fill="white"/>
<path d="M21.0068 46.027L21.3909 47.0308C21.3909 47.2347 21.6149 47.3289 21.7749 47.2191L21.6469 46.7485L24.2712 45.8231L22.1269 49.07L22.335 49.6033C22.431 49.8386 22.607 49.8543 22.719 49.7758L22.623 49.2896L25.7114 48.1759L25.9194 48.4739C25.9357 48.4966 25.9573 48.5151 25.9823 48.5278C26.0074 48.5406 26.0352 48.5473 26.0635 48.5473C26.0917 48.5473 26.1196 48.5406 26.1446 48.5278C26.1697 48.5151 26.1912 48.4966 26.2074 48.4739C26.1135 48.2863 26.0333 48.0924 25.9674 47.8936L25.7594 47.2818C25.7506 47.2518 25.7354 47.224 25.7149 47.2002C25.6942 47.1764 25.6687 47.1572 25.6399 47.1438C25.6112 47.1305 25.5798 47.1233 25.548 47.1228C25.5162 47.1222 25.4846 47.1283 25.4554 47.1407L25.5514 47.7211L23.1031 48.5994L24.9593 45.7917C25.1353 45.5407 25.1513 45.4152 25.1033 45.2898C25.0775 45.2036 25.0339 45.1235 24.9753 45.0544L21.5029 46.2936L21.3909 46.1524C21.2949 45.9799 21.1988 45.9485 21.0068 46.0427" fill="white"/>
<path d="M23.755 42.7025V43.2672L20.5545 44.1142L20.4425 43.8475C20.3625 43.6593 20.2985 43.6122 20.1064 43.6907C20.4105 44.8044 20.4265 44.8828 20.4265 44.8828C20.4265 44.8828 20.6025 45.1965 20.7785 45.1181L20.6826 44.6475L23.8829 43.8005L24.059 44.1298C24.139 44.3024 24.251 44.3181 24.347 44.2397C24.443 44.1612 24.235 43.8005 24.155 43.5338C24.0749 43.2672 24.027 43.0632 23.995 42.8907C23.99 42.8559 23.9771 42.8228 23.9574 42.7935C23.9376 42.7643 23.9114 42.7398 23.8808 42.7217C23.8501 42.7037 23.8157 42.6925 23.7801 42.6892C23.7445 42.6859 23.7085 42.6904 23.6749 42.7025" fill="white"/>
<path d="M19.4189 39.4399L19.627 40.5692C19.627 40.7732 19.803 40.8359 19.931 40.7888V40.3182L22.9554 40.679L20.267 42.1692L20.1711 41.8398C20.1556 41.7632 20.1099 41.6955 20.0441 41.6515C19.9782 41.6075 19.8974 41.5906 19.819 41.6045L20.043 42.875C20.043 43.0632 20.2191 43.1887 20.3951 43.126V42.7495L23.8995 40.8515C23.8617 40.7075 23.7774 40.5792 23.6592 40.486C23.5409 40.3927 23.3951 40.3394 23.2435 40.3339L19.899 39.879C19.899 39.5025 19.723 39.3771 19.4189 39.4555" fill="white"/>
<path d="M22.0755 35.6121C22.0755 35.7689 22.0755 35.9258 22.3314 35.9884L22.7955 36.114L22.8755 37.5571L21.4194 37.7139L21.3074 36.6316H21.7234C21.7308 36.5894 21.7283 36.5461 21.7161 36.5051C21.7039 36.464 21.6824 36.4261 21.6531 36.3944C21.6238 36.3627 21.5875 36.3379 21.547 36.3219C21.5066 36.306 21.4629 36.2992 21.4194 36.3022L20.5393 36.3806C20.5131 36.4174 20.4991 36.4612 20.4991 36.5061C20.4991 36.551 20.5131 36.5948 20.5393 36.6316C20.6353 36.6316 20.7153 36.6316 20.9073 36.6316L21.0193 37.7139L19.5631 37.8708L19.5791 36.5688L20.1552 36.412C20.1552 36.2551 20.1552 36.114 19.9151 36.1454L19.1631 36.2551L19.3231 38.31C19.3231 38.9061 19.4991 38.9374 19.6751 38.8747V38.4354L23.0036 38.0904L23.1156 38.4041C23.124 38.4303 23.1383 38.4544 23.1573 38.4746C23.1763 38.4948 23.1995 38.5107 23.2255 38.5211C23.2514 38.5316 23.2793 38.5364 23.3073 38.5351C23.3354 38.5339 23.3627 38.5266 23.3876 38.5139L23.0995 35.7061L22.0755 35.6121Z" fill="white"/>
<path d="M23.0188 31.6593C22.9071 31.9565 22.7062 32.2135 22.4427 32.3966L21.2266 33.3534C21.1298 33.1254 20.9649 32.9315 20.7535 32.7971C20.5421 32.6627 20.2943 32.5942 20.0424 32.6005C19.3703 32.6005 18.9542 33.1181 18.9703 33.9652C18.9863 34.8122 19.0503 35.4082 19.2583 35.4082V34.922H22.5707L22.7788 35.1729C22.7809 35.2014 22.7901 35.2289 22.8057 35.253C22.8212 35.2771 22.8427 35.2971 22.868 35.311C22.8934 35.325 22.9219 35.3326 22.951 35.3332C22.9801 35.3337 23.0089 35.3272 23.0348 35.3142C23.0188 35.0843 23.0188 34.8538 23.0348 34.6239C23.0348 34.373 23.0348 34.1534 23.0348 33.9024C23.0393 33.83 23.0153 33.7586 22.9676 33.7032C22.9199 33.6477 22.8523 33.6123 22.7788 33.6044V34.2318H21.4506V33.8083L22.7467 32.8515C23.2428 32.4907 23.3069 32.2868 23.3069 31.926C23.3178 31.8517 23.3012 31.7761 23.2601 31.7128C23.219 31.6495 23.1561 31.6026 23.0828 31.5809L23.0188 31.6593ZM20.2504 33.1495C20.3766 33.1348 20.5046 33.148 20.6249 33.1882C20.7452 33.2285 20.8547 33.2948 20.9454 33.3822C21.036 33.4695 21.1055 33.5757 21.1486 33.6929C21.1918 33.8101 21.2074 33.9353 21.1945 34.0592C21.1945 34.1377 21.1945 34.2161 21.1945 34.3102H19.3863C19.3788 34.2162 19.3788 34.1219 19.3863 34.0279C19.3716 33.9077 19.3844 33.7858 19.4238 33.6709C19.4632 33.5562 19.5281 33.4515 19.6139 33.3643C19.6997 33.2772 19.8042 33.2099 19.9198 33.1673C20.0355 33.1248 20.1594 33.1079 20.2824 33.1181" fill="white"/>
<path d="M22.1709 28.8986C21.4988 28.8986 21.2429 29.228 20.9868 29.9339C20.7307 30.6397 20.5547 30.7652 20.1547 30.7652C19.9852 30.7348 19.833 30.6446 19.7269 30.5116C19.6207 30.3786 19.568 30.2122 19.5786 30.0436C19.5848 29.8046 19.6224 29.5673 19.6906 29.3378H20.2827C20.2981 29.2952 20.3028 29.2496 20.2964 29.2048C20.2901 29.16 20.2729 29.1173 20.2462 29.0805C20.2196 29.0436 20.1843 29.0135 20.1432 28.9928C20.1023 28.972 20.0568 28.9613 20.0107 28.9613H19.3546C19.2802 29.286 19.2373 29.6169 19.2266 29.9496C19.209 30.1156 19.2253 30.2836 19.2748 30.4435C19.3242 30.6033 19.4058 30.7519 19.5146 30.8804C19.6234 31.009 19.7573 31.115 19.9084 31.1922C20.0595 31.2693 20.2249 31.3162 20.3947 31.3299C20.8268 31.3299 21.1628 31.0633 21.4189 30.4515C21.6749 29.8397 22.011 29.4633 22.379 29.4633C22.5641 29.4903 22.7323 29.5841 22.8507 29.7263C22.969 29.8683 23.0291 30.0486 23.0191 30.2319C23.0191 30.828 22.795 31.0946 22.203 31.0946C22.1937 31.1553 22.198 31.2171 22.2155 31.276C22.233 31.3349 22.2634 31.3893 22.3044 31.4355C22.3455 31.4817 22.3963 31.5187 22.4534 31.5438C22.5105 31.5689 22.5725 31.5816 22.635 31.5809C23.1471 31.5809 23.3871 31.0946 23.4031 30.4358C23.43 30.2531 23.4193 30.067 23.3715 29.8884C23.3238 29.7099 23.24 29.5426 23.1251 29.3963C23.0102 29.25 22.8666 29.1279 22.7027 29.037C22.5388 28.9461 22.358 28.8884 22.1709 28.8672" fill="white"/>
<path d="M23.4665 26.9534L23.2745 27.5024L19.9621 26.9377V26.6397C19.9621 26.4515 19.9621 26.3731 19.7221 26.3574L19.498 27.5809C19.498 27.8162 19.498 27.9417 19.7061 27.9417L19.8341 27.4867L23.1305 28.0514V28.4279C23.1305 28.6161 23.2425 28.6632 23.3545 28.6475L23.4826 27.926C23.4826 27.6593 23.4826 27.4397 23.6106 27.2828C23.7386 27.126 23.6106 26.9848 23.4186 26.9534" fill="white"/>
<path d="M21.6592 22.6238L20.539 22.4356C20.4625 22.9651 20.3502 23.4891 20.2029 24.0041C20.0749 24.4748 19.9149 24.9767 19.7549 25.5728L20.811 25.9648C20.8911 25.7923 20.811 25.6982 20.539 25.4786L20.2189 25.2747C20.2189 25.0081 20.3789 24.6943 20.443 24.412L23.6434 25.1963V25.6198C23.6375 25.6478 23.6387 25.6768 23.6471 25.7042C23.6555 25.7316 23.6706 25.7565 23.6913 25.7768C23.7119 25.797 23.7373 25.8118 23.7653 25.8201C23.7933 25.8282 23.8228 25.8295 23.8514 25.8237C23.8514 25.6511 23.9634 25.3375 24.0434 25.0238C24.1235 24.71 24.1875 24.5061 24.2194 24.3649C24.2319 24.3341 24.2376 24.3011 24.2361 24.2681C24.2346 24.235 24.2261 24.2026 24.211 24.173C24.1959 24.1434 24.1746 24.1172 24.1485 24.0962C24.1224 24.0752 24.092 24.0599 24.0594 24.0512L23.7874 24.6473L20.587 23.863C20.6774 23.5637 20.7522 23.26 20.811 22.9532H21.3391C21.5631 22.9532 21.6592 22.8591 21.6592 22.6395" fill="white"/>
<path d="M25.6956 19.6444L25.4236 20.0523H21.4231C21.4231 20.1464 21.343 20.2091 21.311 20.2876C21.2746 20.3676 21.2691 20.4579 21.2956 20.5416C21.3221 20.6253 21.3788 20.6967 21.455 20.7424L24.2394 23.0953V23.409C24.2394 23.459 24.2596 23.5068 24.2956 23.5421C24.3316 23.5774 24.3805 23.5973 24.4315 23.5973C24.485 23.414 24.5546 23.2355 24.6394 23.064C24.6394 22.8443 24.8155 22.609 24.8795 22.4522C24.907 22.396 24.9107 22.3314 24.8897 22.2726C24.8686 22.2138 24.8247 22.1656 24.7675 22.1385L24.3834 22.6247L23.4073 21.8561L23.8874 20.617H25.1515V21.0875C25.1467 21.1106 25.1473 21.1344 25.1531 21.1572C25.159 21.18 25.17 21.2013 25.1854 21.2193C25.2007 21.2374 25.22 21.2519 25.2419 21.2616C25.2637 21.2714 25.2875 21.2763 25.3116 21.2757C25.3116 21.1189 25.4555 20.868 25.5516 20.6326C25.6476 20.3973 25.7596 20.115 25.8396 19.9582C25.8678 19.8996 25.8719 19.8328 25.8511 19.7714C25.8302 19.71 25.786 19.659 25.7276 19.6287L25.6956 19.6444ZM23.5994 20.5699L23.1833 21.6052L21.8231 20.4915L23.5994 20.5699Z" fill="white"/>
<path d="M26.124 16.6953C25.5319 16.3816 25.1479 16.5855 24.5238 17.0875C23.8997 17.5894 23.7557 17.6522 23.4197 17.4639C23.2759 17.3682 23.1756 17.2215 23.1398 17.0549C23.104 16.8882 23.1355 16.7143 23.2276 16.5699C23.3336 16.3557 23.474 16.1598 23.6437 15.9895L24.1557 16.2719C24.1921 16.2456 24.2217 16.2113 24.2421 16.1719C24.2625 16.1323 24.2731 16.0886 24.2731 16.0444C24.2731 16.0001 24.2625 15.9565 24.2421 15.9169C24.2217 15.8774 24.1921 15.8432 24.1557 15.8169L23.6117 15.4875C23.3916 15.7393 23.1985 16.0126 23.0356 16.3032C22.9421 16.4423 22.8782 16.5985 22.8477 16.7624C22.8172 16.9263 22.8207 17.0945 22.8581 17.2571C22.8954 17.4196 22.9658 17.5732 23.065 17.7084C23.1642 17.8436 23.2903 17.9579 23.4357 18.0443C23.8197 18.2482 24.2518 18.1541 24.7478 17.7149C25.2439 17.2757 25.7399 17.1032 26.06 17.26C26.2159 17.368 26.3253 17.529 26.3667 17.7117C26.4081 17.8944 26.3787 18.0857 26.284 18.2482C26.012 18.7659 25.676 18.907 25.1638 18.6404C25.1291 18.6902 25.1052 18.7465 25.0936 18.8057C25.082 18.865 25.083 18.9259 25.0965 18.9849C25.11 19.0437 25.1358 19.0992 25.1721 19.1479C25.2085 19.1966 25.2547 19.2374 25.3079 19.2678C25.7719 19.5031 26.22 19.1737 26.54 18.5933C26.7331 18.2867 26.7992 17.9192 26.7248 17.5664C26.6504 17.2135 26.4412 16.9019 26.14 16.6953" fill="white"/>
<path d="M57.8907 22.0438L57.7946 21.5732L60.707 18.8909C60.685 18.8059 60.6582 18.7222 60.627 18.6399C60.5979 18.5584 60.5399 18.4898 60.4635 18.4466C60.3872 18.4035 60.2975 18.3885 60.2109 18.4047L56.5305 18.6086L56.3864 18.3576C56.3699 18.3379 56.3492 18.322 56.3257 18.3112C56.3021 18.3002 56.2764 18.2946 56.2504 18.2946C56.2245 18.2946 56.1987 18.3002 56.1752 18.3112C56.1517 18.322 56.1309 18.3379 56.1144 18.3576C56.2092 18.5255 56.2946 18.6983 56.3704 18.8752C56.3704 19.0948 56.5464 19.3302 56.6104 19.487C56.6177 19.5165 56.6312 19.5442 56.6499 19.5683C56.6687 19.5925 56.6924 19.6125 56.7194 19.6273C56.7465 19.642 56.7764 19.6511 56.8072 19.6539C56.838 19.6568 56.8691 19.6534 56.8985 19.6438L56.7705 19.0478L58.0507 18.938L58.5627 20.1615L57.6346 20.9772L57.3466 20.6007C57.3287 20.5832 57.3076 20.5692 57.2842 20.5597C57.2609 20.5502 57.2358 20.5453 57.2105 20.5453C57.1853 20.5453 57.1603 20.5502 57.1369 20.5597C57.1136 20.5692 57.0924 20.5832 57.0745 20.6007C57.1885 20.8015 57.2848 21.0114 57.3626 21.2281C57.4906 21.4948 57.5866 21.7301 57.6506 21.9026C57.6575 21.934 57.6714 21.9635 57.6911 21.9891C57.711 22.0146 57.7363 22.0357 57.7652 22.0506C57.7942 22.0655 57.8262 22.0741 57.8589 22.0756C57.8917 22.0772 57.9243 22.0716 57.9547 22.0595L57.8907 22.0438ZM58.8188 19.9418L58.3867 18.9223L60.1629 18.7812L58.8188 19.9418Z" fill="white"/>
<path d="M62.7863 25.2911L62.4183 24.1931C62.4183 23.9891 62.2262 23.895 62.0502 23.9735L62.1302 24.4597L59.4419 25.1655L61.8422 22.1068L61.6981 21.5578C61.6981 21.3068 61.4581 21.2755 61.3461 21.3539V21.8558L58.1457 22.6872L57.9537 22.3735C57.9443 22.3481 57.9289 22.3251 57.9088 22.3066C57.8887 22.2881 57.8644 22.2745 57.8379 22.2668C57.8114 22.2592 57.7835 22.2578 57.7563 22.2627C57.7292 22.2676 57.7036 22.2787 57.6816 22.2951C57.6816 22.4519 57.7937 22.6715 57.8577 22.8911C57.9246 23.1021 57.978 23.3168 58.0177 23.5342C58.0177 23.6754 58.1777 23.7225 58.3218 23.7068V23.1108L60.8341 22.4519L58.7378 25.1342C58.5618 25.3851 58.5298 25.495 58.5618 25.6361C58.5694 25.7251 58.6091 25.8085 58.6738 25.8715L62.2422 24.946L62.3383 25.1655C62.4183 25.3381 62.5143 25.3695 62.7063 25.2911" fill="white"/>
<path d="M61.5372 29.9969C61.8137 29.9673 62.0802 29.8783 62.3174 29.736C62.5548 29.5939 62.7572 29.402 62.9101 29.1742C63.063 28.9464 63.1626 28.6883 63.2019 28.4183C63.2412 28.1484 63.2191 27.8733 63.1374 27.6127C63.1143 27.072 62.9895 26.5403 62.7693 26.0441C62.7429 26.021 62.7087 26.0081 62.6733 26.0081C62.6379 26.0081 62.6037 26.021 62.5773 26.0441V26.546L59.2969 27.001L59.1689 26.6715C59.1689 26.5303 59.0089 26.4677 58.8808 26.5303C58.7528 26.5931 58.9768 27.0793 59.0248 27.3774C59.0728 27.6754 59.0248 28.099 59.1209 28.2715C59.1368 28.5433 59.2133 28.8085 59.345 29.0483C59.4765 29.2882 59.6601 29.4969 59.8828 29.6597C60.1054 29.8227 60.3617 29.9359 60.6336 29.9914C60.9056 30.047 61.1867 30.0435 61.4571 29.9812L61.5372 29.9969ZM59.5849 28.3185C59.5569 28.063 59.5569 27.8054 59.5849 27.55L62.7854 27.095C63.0094 28.5381 62.4813 29.2597 61.1851 29.4479C60.8213 29.4984 60.4516 29.409 60.1534 29.1986C59.8551 28.9881 59.6514 28.6728 59.5849 28.3185Z" fill="white"/>
<path d="M59.8248 32.6635L59.9048 32.0361L63.2492 31.8478V32.1458C63.2492 32.3341 63.3452 32.4125 63.5373 32.3655C63.5373 31.2204 63.5373 31.1263 63.5373 31.1263C63.5373 31.1263 63.4253 30.7968 63.2492 30.8282V31.3145L59.9048 31.4714L59.8088 31.1106C59.8088 30.9381 59.6488 30.9067 59.5208 30.9537C59.3927 31.0008 59.5208 31.4086 59.5208 31.6753C59.5357 31.8946 59.5357 32.1147 59.5208 32.3341C59.5208 32.5066 59.6328 32.6164 59.7768 32.6008" fill="white"/>
<path d="M63.4428 37.5888V36.5222C63.4428 36.3026 63.4428 36.1771 63.1707 36.2085V36.679L60.3704 36.5379L63.5708 34.3732V33.7929C63.5708 33.5262 63.4107 33.4478 63.2987 33.4948L63.1867 33.9811L59.8903 33.8085L59.8103 33.4478C59.8098 33.4219 59.8029 33.3966 59.7901 33.374C59.7773 33.3515 59.759 33.3323 59.7369 33.3184C59.7147 33.3044 59.6893 33.296 59.6631 33.2939C59.6368 33.2919 59.6104 33.2962 59.5863 33.3065C59.5863 33.4634 59.5863 33.683 59.5863 33.934C59.5863 34.185 59.5863 34.4045 59.5863 34.5771C59.5841 34.608 59.5882 34.6391 59.5982 34.6684C59.6084 34.6978 59.6243 34.7249 59.6451 34.7482C59.6659 34.7715 59.6912 34.7906 59.7196 34.8043C59.7479 34.818 59.7787 34.8261 59.8103 34.8281L59.9543 34.2477L62.5627 34.3889L59.7303 36.2555C59.4743 36.4123 59.4103 36.5222 59.3942 36.6633C59.3777 36.7515 59.3777 36.8419 59.3942 36.93L63.0907 37.1182V37.3535C63.0907 37.5417 63.1707 37.6045 63.3788 37.5888" fill="white"/>
<path d="M59.8412 40.8823C59.9372 40.7254 59.9213 40.5842 59.6972 40.443L59.2812 40.2077L59.5851 38.7804L61.0254 39.0157L60.8654 40.0823L60.4493 40.0038C60.4314 40.0416 60.4228 40.0829 60.424 40.1244C60.4253 40.166 60.4365 40.2067 60.4567 40.2434C60.477 40.28 60.5056 40.3114 60.5404 40.3351C60.5753 40.359 60.6153 40.3744 60.6573 40.3803L61.5374 40.5528C61.5613 40.5123 61.5739 40.4664 61.5739 40.4195C61.5739 40.3727 61.5613 40.3267 61.5374 40.2862C61.5374 40.192 61.3934 40.1764 61.2174 40.145L61.3774 39.0627L62.8176 39.298L62.5616 40.5999H61.9695C61.9695 40.741 61.9695 40.9136 62.1295 40.9293H62.8816L63.2177 38.8901C63.3136 38.2941 63.2177 38.247 63.0256 38.2627L62.9136 38.6863L59.5851 38.3098V37.9804C59.5851 37.8392 59.4572 37.7921 59.3452 37.8078L58.9131 40.5842L59.8412 40.8823Z" fill="white"/>
<path d="M61.6334 46.1527L61.9054 45.1331C61.9054 44.9135 61.9054 44.7566 61.6974 44.7566L61.5374 45.2115L58.833 44.5841L62.4815 43.1253L62.6415 42.5763C62.6415 42.3096 62.6415 42.1998 62.4334 42.2155L62.2254 42.6704L59.025 41.8391V41.4469C59.028 41.4201 59.0245 41.3929 59.0148 41.3677C59.0052 41.3424 58.9896 41.3197 58.9694 41.3014C58.9492 41.2831 58.9249 41.2697 58.8984 41.2623C58.8719 41.2548 58.844 41.2536 58.817 41.2587C58.817 41.4155 58.737 41.6351 58.673 41.8705C58.6089 42.1058 58.5449 42.3253 58.4809 42.4978C58.4664 42.5581 58.4768 42.6216 58.5098 42.6745C58.5428 42.7274 58.5956 42.7654 58.6569 42.7802L58.913 42.2469L61.4413 42.9057L58.2409 44.1605C57.9529 44.2704 57.8569 44.3645 57.8089 44.49C57.793 44.5781 57.793 44.6684 57.8089 44.7566L61.3773 45.6978V45.9331C61.3773 46.1213 61.3773 46.1997 61.6173 46.2154" fill="white"/>
<path d="M57.7748 48.2078C58.3989 48.4431 58.7669 48.2078 59.279 47.6588C59.7911 47.1098 59.9831 47.0157 60.3512 47.1569C60.5012 47.2426 60.6126 47.3808 60.6631 47.5437C60.7136 47.7066 60.6993 47.8823 60.6232 48.0353C60.5379 48.2587 60.4134 48.4658 60.2551 48.647L59.727 48.4274C59.6986 48.4615 59.6788 48.5016 59.669 48.5444C59.6592 48.5873 59.6598 48.6319 59.6706 48.6746C59.6815 48.7172 59.7024 48.7568 59.7317 48.7901C59.7609 48.8235 59.7977 48.8496 59.839 48.8666L60.4311 49.1489C60.6179 48.8765 60.7786 48.5877 60.9112 48.2863C61.0625 47.984 61.087 47.6357 60.9792 47.3161C60.8716 46.9964 60.6403 46.7309 60.3351 46.5765C59.9191 46.4196 59.503 46.5765 59.055 47.0471C58.6069 47.5176 58.1268 47.7529 57.7908 47.6274C57.6276 47.5377 57.5043 47.3916 57.4451 47.2176C57.386 47.0435 57.3951 46.8541 57.4707 46.6863C57.6948 46.1216 57.9988 45.949 58.5429 46.1686C58.5722 46.1146 58.5896 46.0552 58.5941 45.9941C58.5986 45.9331 58.59 45.8718 58.5689 45.8143C58.5478 45.7566 58.5147 45.7039 58.4716 45.6596C58.4286 45.6153 58.3765 45.5803 58.3189 45.5569C57.8388 45.3687 57.4388 45.7452 57.1827 46.3569C57.0215 46.6812 56.993 47.0536 57.1031 47.3978C57.2132 47.742 57.4535 48.0319 57.7748 48.2078Z" fill="white"/>
<path d="M56.1127 49.5726L56.4807 49.1178L59.4411 50.6863L59.3291 50.953C59.2491 51.1256 59.3291 51.2196 59.4571 51.2981L60.0492 50.2001C60.1612 49.9962 60.1451 49.855 59.9532 49.7922L59.6971 50.2001L56.7367 48.6315L56.8487 48.2707C56.8487 48.0982 56.8487 48.0041 56.7048 48.0041C56.5607 48.0041 56.4807 48.3962 56.3527 48.6472C56.2247 48.8982 56.1127 49.0864 56.0327 49.2276C56.006 49.2481 55.9845 49.2743 55.9697 49.3042C55.9549 49.3341 55.9472 49.3669 55.9472 49.4001C55.9472 49.4333 55.9549 49.4661 55.9697 49.496C55.9845 49.5259 56.006 49.5521 56.0327 49.5726" fill="white"/>
<path d="M55.4082 52.5842C55.9682 52.9293 56.3683 52.7568 57.0083 52.3019C57.6485 51.847 57.8085 51.7842 58.1445 51.9881C58.28 52.0959 58.3675 52.2511 58.3883 52.4208C58.4093 52.5906 58.3619 52.7617 58.2565 52.8979C58.1399 53.1044 57.9884 53.2901 57.8085 53.4469L57.3124 53.1332C57.276 53.1594 57.2465 53.1937 57.2261 53.2332C57.2057 53.2728 57.1951 53.3164 57.1951 53.3607C57.1951 53.4049 57.2057 53.4486 57.2261 53.4881C57.2465 53.5276 57.276 53.5619 57.3124 53.5881L57.8405 53.9646C58.0782 53.733 58.2876 53.4751 58.4646 53.196C58.6683 52.9228 58.7541 52.5818 58.7031 52.2471C58.6522 51.9124 58.4688 51.6108 58.1925 51.4078C57.8245 51.1882 57.3924 51.2509 56.8484 51.6588C56.3043 52.0666 55.8242 52.2077 55.5042 52.0195C55.3641 51.8986 55.2726 51.7326 55.2463 51.5514C55.2198 51.3703 55.2602 51.1859 55.3601 51.0314C55.6802 50.5137 56.0162 50.4039 56.5123 50.7019C56.5509 50.655 56.5788 50.6004 56.5941 50.5421C56.6095 50.4837 56.612 50.4227 56.6013 50.3634C56.5908 50.3039 56.5674 50.2474 56.5327 50.1976C56.498 50.1478 56.4529 50.1058 56.4003 50.0745C55.9682 49.8078 55.5042 50.0745 55.1361 50.6705C54.921 50.9624 54.8292 51.3244 54.8798 51.681C54.9306 52.0376 55.1198 52.3612 55.4082 52.5842Z" fill="white"/>
<path d="M34.8125 61.6508C34.7906 61.6184 34.7609 61.5919 34.726 61.5736C34.6911 61.5552 34.6521 61.5456 34.6125 61.5456C34.5729 61.5456 34.5339 61.5552 34.499 61.5736C34.4641 61.5919 34.4343 61.6184 34.4125 61.6508L34.0764 61.9645C33.7889 61.9405 33.5103 61.8548 33.2603 61.7136C32.5402 61.3371 32.2521 60.5999 32.8763 59.4391C32.954 59.2514 33.0731 59.0827 33.2248 58.9451C33.3766 58.8074 33.5574 58.7043 33.7544 58.6429C33.9516 58.5815 34.1599 58.5634 34.3649 58.5898C34.5699 58.6164 34.7664 58.6867 34.9405 58.7961C35.1565 58.9027 35.3516 59.0461 35.5166 59.2195L35.2125 59.7058C35.3406 59.847 35.5006 59.847 35.6607 59.6274L36.0447 59.1411C35.8136 58.8853 35.5371 58.6727 35.2286 58.5137C34.9766 58.3652 34.6957 58.2699 34.4039 58.234C34.1122 58.198 33.816 58.2221 33.5344 58.3047C33.2527 58.3874 32.9918 58.5269 32.7682 58.7141C32.5447 58.9014 32.3635 59.1323 32.2362 59.3921C32.0785 59.5954 31.9698 59.831 31.9181 60.0814C31.8665 60.3317 31.8731 60.5902 31.9378 60.8376C32.0024 61.085 32.1233 61.3148 32.2914 61.51C32.4594 61.7051 32.6703 61.8606 32.9082 61.9645C33.3297 62.18 33.7938 62.3031 34.2684 62.3253L34.8125 61.6508Z" fill="white"/>
<path d="M39.6321 64.0029L39.088 63.7677L39.9041 60.6305H40.1761C40.3682 60.6305 40.4641 60.6305 40.4962 60.4266L39.296 60.1285C39.056 60.1285 38.928 60.1285 38.928 60.3011L39.3761 60.4579L39.008 61.8383L36.8957 61.3207L37.2478 59.9403H37.5678C37.7438 59.9403 37.8718 59.9403 37.8879 59.7364L36.6237 59.4227C36.3837 59.4227 36.2557 59.4227 36.2396 59.6109L36.7037 59.7521L35.8876 62.8892H35.4715C35.4442 62.8863 35.4165 62.8897 35.3907 62.8991C35.3649 62.9086 35.3417 62.9239 35.323 62.9437C35.3044 62.9636 35.2907 62.9874 35.2832 63.0134C35.2756 63.0393 35.2743 63.0667 35.2795 63.0931L36.0476 63.2657L36.6397 63.4225C36.7997 63.4225 36.9757 63.4225 37.0238 63.2657L36.4317 63.0147L36.7997 61.5403L38.928 62.0579L38.56 63.5324H38.1439C37.9838 63.5324 37.9199 63.6421 37.9358 63.7363L38.736 63.9245L39.3281 64.0657C39.3583 64.0778 39.391 64.0834 39.4237 64.0818C39.4564 64.0804 39.4884 64.0718 39.5174 64.0568C39.5464 64.0419 39.5717 64.0209 39.5915 63.9953C39.6113 63.9697 39.6252 63.9402 39.6321 63.9088" fill="white"/>
<path d="M42.9586 63.9875H42.3505L42.1905 60.6935H42.4785C42.6706 60.6935 42.7346 60.615 42.7026 60.4111H41.4384C41.2144 60.4111 41.1024 60.5209 41.1504 60.6935H41.6305L41.8065 63.9718L41.4384 64.0658C41.2464 64.0658 41.2144 64.2228 41.2624 64.3325C41.3104 64.4423 41.7264 64.3325 41.9985 64.3325C42.2223 64.3193 42.4467 64.3193 42.6706 64.3325C42.7067 64.337 42.7435 64.3338 42.7784 64.3232C42.8132 64.3127 42.8454 64.2948 42.8727 64.2711C42.9 64.2474 42.9218 64.2181 42.9366 64.1855C42.9514 64.1528 42.9589 64.1173 42.9586 64.0815" fill="white"/>
<path d="M47.2945 62.0582C47.2541 62.0537 47.2131 62.0577 47.1744 62.0699C47.1357 62.0821 47.1 62.1022 47.0698 62.1288C47.0396 62.1555 47.0154 62.1882 46.999 62.2247C46.9826 62.2612 46.9742 62.3006 46.9745 62.3405V62.8582L45.5343 63.2189L44.5741 60.0818L44.9102 59.9405C45.0862 59.9405 45.1662 59.7837 45.0862 59.5955L43.806 59.9876C43.582 59.9876 43.502 60.1602 43.582 60.3327L44.0301 60.2386L45.0222 63.3758L44.7022 63.564C44.6821 63.5802 44.6659 63.6005 44.6548 63.6235C44.6436 63.6466 44.6379 63.6718 44.6379 63.6973C44.6379 63.7228 44.6436 63.748 44.6548 63.7711C44.6659 63.7941 44.6821 63.8145 44.7022 63.8306L47.4545 62.9993L47.2945 62.0582Z" fill="white"/>
<path d="M50.5942 60.2708C50.4182 60.2708 50.2902 60.3963 50.3381 60.6473L50.4182 61.1178L49.09 61.7767L48.3859 60.5374L49.346 59.9884L49.5221 60.3492C49.5655 60.3435 49.6068 60.3269 49.6419 60.3011C49.6769 60.2752 49.7046 60.241 49.7223 60.2016C49.74 60.1622 49.747 60.1191 49.7428 60.0762C49.7386 60.0334 49.7231 59.9924 49.6981 59.9571L49.282 59.1885C49.2355 59.192 49.1912 59.2088 49.1542 59.2366C49.1173 59.2644 49.0894 59.3022 49.074 59.3454C49.074 59.4551 49.074 59.5179 49.17 59.6905L48.1939 60.2395L47.4738 58.9846L48.6739 58.3728L49.042 58.8278C49.202 58.8278 49.314 58.6395 49.202 58.4826L48.7859 57.8709L46.9617 58.9061C46.4336 59.2042 46.4497 59.2983 46.5777 59.4551L46.9937 59.2669L48.594 62.0904L48.3379 62.3413C48.3148 62.3572 48.2959 62.3784 48.2829 62.403C48.2699 62.4275 48.2631 62.4548 48.2631 62.4825C48.2631 62.5102 48.2699 62.5375 48.2829 62.5621C48.2959 62.5866 48.3148 62.6078 48.3379 62.6237L50.8342 61.212L50.5942 60.2708Z" fill="white"/>
<path d="M27.9496 55.9881C27.9464 55.823 27.9935 55.6608 28.0847 55.522C28.176 55.3832 28.3073 55.2742 28.462 55.2089C28.6166 55.1436 28.7876 55.1249 28.9532 55.1552C29.1188 55.1855 29.2713 55.2633 29.3916 55.3789C29.5118 55.4946 29.5942 55.6427 29.6282 55.8043C29.6623 55.966 29.6464 56.134 29.5827 56.2868C29.519 56.4396 29.4103 56.5704 29.2706 56.6625C29.1308 56.7546 28.9662 56.8037 28.7978 56.8037C28.6872 56.8059 28.5772 56.7862 28.4744 56.7462C28.3716 56.7062 28.278 56.6464 28.199 56.5705C28.12 56.4945 28.0573 56.4039 28.0145 56.3039C27.9716 56.2039 27.9496 56.0966 27.9496 55.9881Z" fill="white"/>
<path d="M53.0723 55.9882C53.0723 55.8269 53.1211 55.6692 53.2125 55.5351C53.3039 55.4009 53.4339 55.2964 53.5859 55.2347C53.738 55.1729 53.9053 55.1567 54.0667 55.1882C54.2281 55.2197 54.3764 55.2974 54.4927 55.4114C54.6091 55.5255 54.6884 55.6709 54.7205 55.8291C54.7526 55.9873 54.7361 56.1513 54.6731 56.3004C54.6101 56.4494 54.5035 56.5768 54.3667 56.6664C54.2298 56.7561 54.0689 56.8039 53.9044 56.8039C53.6837 56.8039 53.472 56.718 53.316 56.565C53.1599 56.4121 53.0723 56.2046 53.0723 55.9882Z" fill="white"/>
<path d="M57.9872 33.4946C57.9953 29.9891 57.4556 26.5031 56.387 23.1577C53.1866 13.2443 46.7858 8.71118 41.4091 8.71118C36.0324 8.71118 29.5036 13.213 26.3512 23.2048C25.2905 26.5788 24.7511 30.0895 24.751 33.6201C24.751 49.8078 34.3522 58.5448 41.3291 58.5448C48.306 58.5448 57.9872 49.6823 57.9872 33.4946ZM41.137 33.3378H25.359C25.3992 29.9593 25.9381 26.6043 26.9592 23.3773C30.0157 13.7619 36.1924 9.43272 41.137 9.26018V33.3378ZM41.137 57.9644C34.6243 57.7291 25.5351 49.5255 25.423 33.9025H41.137V57.9644ZM41.7132 33.9025H57.3472C57.1871 49.447 48.13 57.7291 41.6492 57.9644L41.7132 33.9025ZM57.4112 33.3378H41.6492V9.27587C46.5617 9.43272 52.7225 13.7463 55.7789 23.393C56.8247 26.6306 57.3642 30.0046 57.3791 33.4006" fill="white"/>
<path d="M48.5132 44.2551H52.8977C52.97 44.2476 53.0372 44.2151 53.0871 44.1633C53.137 44.1115 53.1663 44.0439 53.1698 43.9727V39.267C53.1698 39.1415 53.1698 39.0317 53.4257 39.0317C53.6818 39.0317 53.6498 39.1572 53.6498 39.267V44.3335C53.6585 44.3904 53.6531 44.4485 53.6342 44.503C53.6153 44.5575 53.5834 44.6067 53.5411 44.6466C53.4988 44.6865 53.4474 44.716 53.3911 44.7325C53.3349 44.7489 53.2754 44.752 53.2178 44.7413H43.8085C43.8085 44.7413 43.3925 44.7413 43.3925 44.3335V39.2356C43.3925 39.1258 43.3925 39.0003 43.6165 39.0003C43.8406 39.0003 43.8725 39.1102 43.8725 39.2356V43.9414C43.8724 44.0136 43.9006 44.0832 43.9512 44.1356C44.0018 44.1882 44.071 44.2197 44.1446 44.2237L48.5132 44.2551Z" fill="white"/>
<path d="M48.5146 43.4389H51.923C52.4351 43.4389 52.403 43.2036 52.1951 43.1095C51.1635 42.7291 50.0261 42.7291 48.9946 43.1095C48.6586 43.282 48.7226 42.9526 48.7226 42.8272V38.592C48.7226 38.3567 48.9946 37.698 51.427 37.7763C52.7391 37.7763 52.7551 38.0743 52.7551 38.247V43.4703C52.7574 43.5223 52.7486 43.5743 52.7293 43.623C52.71 43.6715 52.6806 43.7156 52.643 43.7525C52.6053 43.7893 52.5603 43.8182 52.5108 43.8371C52.4612 43.856 52.4082 43.8646 52.3551 43.8624H44.7381C44.685 43.8646 44.6319 43.856 44.5823 43.8371C44.5328 43.8182 44.4878 43.7893 44.4502 43.7525C44.4125 43.7156 44.3831 43.6715 44.3639 43.623C44.3446 43.5743 44.3357 43.5223 44.3381 43.4703V38.3096C44.3381 38.1371 44.3381 37.8861 45.6662 37.8391C48.0985 37.8391 48.3706 38.4195 48.3706 38.6547V42.8899C48.3706 43.0154 48.3706 43.3448 48.0825 43.1723C47.0518 42.7875 45.9128 42.7875 44.8821 43.1723C44.6741 43.2663 44.6421 43.5016 45.1702 43.5016L48.5146 43.4389Z" fill="white"/>
<path d="M53.6607 24.3501C53.5646 24.2403 53.3567 24.3501 53.1486 24.3501C52.5725 24.3501 52.2205 24.0521 51.6444 23.9736L51.2123 23.8482C51.9485 23.5815 52.3965 22.7031 51.9965 22.4992C51.8684 22.4992 51.7725 22.6874 51.6124 22.7659C51.1804 23.0325 50.8283 22.7659 50.3802 23.0011C50.56 22.7883 50.6959 22.5433 50.7803 22.2796C51.0203 21.7463 51.4204 20.8051 51.0044 20.7894C50.8603 20.7894 50.8283 21.0247 50.7003 21.1816C50.3162 21.6051 49.8842 21.7149 49.5001 22.0756L49.1641 22.358C49.3881 21.6208 48.8921 20.7894 48.508 20.9306C48.38 21.009 48.508 21.213 48.508 21.4012C48.508 21.8875 48.0119 21.9973 47.9639 22.4678C47.8934 22.2031 47.7741 21.9533 47.6119 21.7306C47.3078 21.213 46.7638 20.3503 46.5078 20.664C46.2517 20.9776 46.6038 20.9463 46.6518 21.1346C46.7798 21.6993 46.6518 22.107 46.6518 22.609C46.6374 22.7183 46.6374 22.829 46.6518 22.9384C46.1877 22.3423 45.2596 22.1698 45.1636 22.562C45.1636 22.7031 45.3876 22.7345 45.5316 22.86C45.6757 22.9855 45.6757 23.6129 46.0117 23.958C45.7592 23.8296 45.48 23.7599 45.1956 23.754C44.6035 23.6443 43.5954 23.5031 43.6754 23.8953C43.6754 24.0364 43.9474 24.005 44.1234 24.0835C44.6515 24.3501 44.8596 24.7423 45.2916 25.009L45.5797 25.1972C44.8275 25.1972 44.0915 25.7932 44.3635 26.107C44.6355 26.4206 44.6515 26.107 44.8275 26.0128C45.3076 26.0128 45.5316 26.3579 45.9957 26.3109C45.7464 26.4289 45.5234 26.5941 45.3396 26.7971C44.8915 27.205 44.1395 27.9108 44.5075 28.0833C44.8755 28.2559 44.7795 27.9265 44.9395 27.848C45.4836 27.6127 45.9157 27.6912 46.3958 27.5186L46.7318 27.4089C46.2198 27.9579 46.2357 28.899 46.7318 28.899C46.8758 28.899 46.8598 28.648 46.9558 28.4912C47.2119 28.0833 47.6599 28.1931 47.9479 27.801C47.8901 28.0699 47.8901 28.3477 47.9479 28.6166C47.9479 29.2127 48.044 30.1852 48.412 30.0597C48.78 29.9343 48.412 29.7617 48.508 29.5735C48.7094 29.1286 48.9337 28.6941 49.1801 28.2716C49.2297 28.1645 49.2725 28.0545 49.3081 27.9422C49.4042 28.6951 50.2042 29.3068 50.4763 28.9774C50.7483 28.648 50.3483 28.7264 50.2843 28.5539C50.1243 28.099 50.4763 27.8166 50.2843 27.3618C50.4556 27.583 50.674 27.765 50.9243 27.8951C51.4044 28.2402 52.2685 28.8049 52.3645 28.4284C52.3645 28.2873 52.1565 28.2088 52.0445 28.052C51.8049 27.6255 51.5911 27.1855 51.4044 26.7343C51.3335 26.628 51.2796 26.5116 51.2444 26.3893C51.9164 26.8128 52.9406 26.6089 52.8446 26.1696C52.8446 26.0285 52.5565 26.1696 52.3805 26.0442C51.9325 25.8716 51.9164 25.4324 51.5004 25.2285C51.7724 25.2306 52.0428 25.1881 52.3005 25.103C52.8766 24.9619 53.9007 24.6795 53.6447 24.3501H53.6607ZM51.1644 25.1658C51.1675 25.6504 51.0238 26.125 50.7515 26.5295C50.4791 26.934 50.0904 27.25 49.6345 27.4376C49.1786 27.6253 48.6762 27.676 48.1909 27.5833C47.7056 27.4906 47.2594 27.2589 46.9086 26.9173C46.5579 26.5757 46.3185 26.1397 46.2209 25.6646C46.1233 25.1896 46.1718 24.6967 46.3602 24.2487C46.5487 23.8006 46.8686 23.4176 47.2795 23.148C47.6903 22.8784 48.1736 22.7345 48.668 22.7345C49.3274 22.7345 49.9599 22.9901 50.4276 23.4456C50.8953 23.9011 51.1601 24.5195 51.1644 25.1658Z" fill="white"/>
<path d="M46.6846 25.1657C46.6846 24.7779 46.8019 24.3989 47.0217 24.0764C47.2415 23.754 47.5538 23.5027 47.9193 23.3543C48.2848 23.2059 48.687 23.167 49.0751 23.2427C49.4631 23.3183 49.8195 23.5051 50.0992 23.7793C50.3789 24.0535 50.5694 24.4029 50.6466 24.7833C50.7238 25.1636 50.6842 25.5578 50.5328 25.9161C50.3814 26.2743 50.125 26.5806 49.7961 26.796C49.4672 27.0115 49.0804 27.1265 48.6848 27.1265C48.4215 27.1286 48.1605 27.0793 47.9169 26.9815C47.6732 26.8836 47.4518 26.7393 47.2657 26.5569C47.0795 26.3743 46.9323 26.1574 46.8325 25.9186C46.7327 25.6797 46.6824 25.4238 46.6846 25.1657Z" fill="white"/>
<path d="M32.1242 38.4822L32.7002 37.9175H32.2681C32.1888 37.9212 32.1137 37.9539 32.0574 38.0089C32.0013 38.0641 31.968 38.1377 31.9641 38.2155C31.9633 38.27 31.9779 38.3238 32.006 38.3708C32.0342 38.4178 32.0751 38.4563 32.1242 38.4822ZM35.3245 38.4822C35.3754 38.4571 35.4186 38.4192 35.4495 38.3722C35.4805 38.3254 35.4981 38.2712 35.5005 38.2155C35.4964 38.135 35.4609 38.0592 35.4013 38.0037C35.3418 37.9482 35.2627 37.9174 35.1805 37.9175H34.7484L35.3245 38.4822ZM33.7243 37.1959C33.887 37.1832 34.0495 37.2217 34.1884 37.3057C34.314 37.363 34.4238 37.4491 34.5084 37.5567H35.4045C35.5292 37.5621 35.6489 37.6059 35.7466 37.682C35.8443 37.7581 35.915 37.8624 35.9486 37.9802C35.976 38.1304 35.9623 38.285 35.909 38.4282C35.8555 38.5715 35.7643 38.6984 35.6446 38.7959L37.6928 40.7565C37.8505 40.9152 37.9618 41.1125 38.0152 41.3276C38.0687 41.5429 38.0624 41.7681 37.9969 41.9801C37.9169 42.2781 37.7088 42.3722 37.5488 42.2467C37.3888 42.1212 35.2285 39.439 35.2285 39.439C35.2285 39.439 35.1485 39.3449 35.1005 39.439C35.0525 39.5331 35.1005 39.439 35.1005 39.5802C35.1005 39.7213 37.3568 42.5918 37.3568 42.5918C37.503 42.8033 37.5655 43.0599 37.5328 43.3134C37.4528 43.58 37.0367 44.2075 36.7007 44.2859C36.5754 44.3267 36.4388 44.3185 36.3196 44.2629C36.2003 44.2074 36.1075 44.1089 36.0606 43.9879C35.6606 42.9526 34.6204 39.8468 34.6204 39.8468C34.6204 39.8468 34.5405 39.6429 34.4444 39.6742C34.3484 39.7056 34.4444 39.8939 34.4444 39.8939L35.8526 44.2859C35.8944 44.4117 35.9016 44.5461 35.8735 44.6755C35.8453 44.8049 35.783 44.9249 35.6926 45.0231C35.3805 45.3059 34.9802 45.4772 34.5564 45.5094C34.4764 45.5094 33.9964 45.5094 33.9643 45.0859C33.9323 44.6623 33.9643 39.9409 33.9643 39.9409C33.9643 39.9409 33.9643 39.737 33.8364 39.737C33.7083 39.737 33.7083 39.9409 33.7083 39.9409C33.7083 39.9409 33.7083 44.5369 33.6283 45.0859C33.5483 45.6349 33.1163 45.5094 33.0362 45.5094C32.6106 45.4849 32.2078 45.3125 31.9001 45.0231C31.8096 44.9281 31.7469 44.8109 31.7188 44.6839C31.6906 44.5569 31.698 44.4248 31.7401 44.3015L33.0683 39.8782C33.0683 39.8782 33.0683 39.6742 33.0683 39.6585C33.0683 39.6429 32.8923 39.8468 32.8923 39.8468C32.8923 39.8468 31.8361 42.9839 31.452 43.9722C31.4021 44.0915 31.3097 44.189 31.192 44.2467C31.0743 44.3044 30.9393 44.3183 30.812 44.2859C30.4243 44.063 30.1296 43.713 29.9798 43.2977C29.9465 43.0491 30.0094 42.7973 30.1559 42.5918C30.1559 42.5918 32.3801 39.5959 32.3801 39.5331C32.3801 39.4703 32.4602 39.4233 32.3801 39.3919C32.3002 39.3605 32.2521 39.3919 32.2521 39.3919C32.2521 39.3919 30.0758 42.0899 29.9319 42.1997C29.7878 42.3095 29.5638 42.1997 29.4837 41.933C29.4196 41.7221 29.4123 41.4984 29.4628 41.2839C29.5133 41.0695 29.6198 40.8715 29.7718 40.7095L31.8201 38.7488C31.7005 38.6517 31.6104 38.5243 31.5596 38.3805C31.5088 38.2366 31.4992 38.0819 31.5321 37.9332C31.5656 37.8154 31.6363 37.711 31.734 37.6349C31.8317 37.5589 31.9515 37.515 32.0761 37.5096H32.9722C33.0617 37.4069 33.1703 37.3217 33.2923 37.2586C33.4334 37.1801 33.5942 37.142 33.7563 37.1489" fill="white"/>
<path d="M35.7878 22.625C35.6109 22.9392 35.4075 23.2383 35.1797 23.5191C34.9076 23.7858 35.5797 23.8642 35.7558 23.6446C35.9318 23.425 36.2358 22.8916 36.2358 22.8916C36.2358 22.8916 36.2358 22.4525 36.0918 22.3426C35.9478 22.2329 35.7878 22.625 35.7878 22.625ZM37.772 28.5699C37.7929 28.589 37.8095 28.6121 37.8208 28.6377C37.8322 28.6633 37.838 28.691 37.838 28.7189C37.838 28.7469 37.8322 28.7746 37.8208 28.8002C37.8095 28.8258 37.7929 28.8489 37.772 28.8679C37.7525 28.8883 37.729 28.9046 37.7029 28.9158C37.6767 28.9269 37.6485 28.9326 37.62 28.9326C37.5915 28.9326 37.5633 28.9269 37.5371 28.9158C37.511 28.9046 37.4875 28.8883 37.468 28.8679L36.9239 28.1935C36.3799 28.3346 35.4357 27.4406 35.1157 27.2837C34.7956 27.1268 34.2516 28.0836 33.9635 27.4249C33.3555 26.0445 31.6752 28.3189 31.1152 28.2719C30.5551 28.2249 31.2112 27.5503 31.1152 27.0955C31.0191 26.6406 30.4431 27.0955 29.979 27.2209C29.7894 27.2651 29.597 27.2965 29.403 27.315L28.0748 28.8836C28.0585 28.9062 28.037 28.9248 28.0119 28.9376C27.9868 28.9503 27.959 28.9569 27.9308 28.9569C27.9025 28.9569 27.8747 28.9503 27.8496 28.9376C27.8246 28.9248 27.803 28.9062 27.7867 28.8836C27.7659 28.8646 27.7493 28.8415 27.7379 28.8159C27.7266 28.7902 27.7207 28.7626 27.7207 28.7346C27.7207 28.7066 27.7266 28.679 27.7379 28.6534C27.7493 28.6277 27.7659 28.6047 27.7867 28.5856L32.1553 23.0015L32.4114 22.6721C32.7794 22.2956 33.1474 22.1858 33.6595 22.6721C33.8195 22.8603 34.1236 23.2681 34.4436 23.7387C34.7797 23.2211 35.5797 22.1701 35.8037 21.8878C35.8444 21.8172 35.9009 21.7566 35.9689 21.7106C36.037 21.6645 36.1148 21.6343 36.1966 21.6222C36.2784 21.6101 36.3619 21.6164 36.4407 21.6407C36.5196 21.665 36.5919 21.7066 36.6519 21.7623C37.02 22.0603 37.98 23.3309 38.5562 23.9426L38.6521 24.0367L39.2602 24.6328C39.2815 24.6532 39.2984 24.6776 39.31 24.7046C39.3215 24.7315 39.3274 24.7604 39.3274 24.7896C39.3274 24.8189 39.3215 24.8478 39.31 24.8747C39.2984 24.9016 39.2815 24.926 39.2602 24.9465C39.2407 24.9669 39.2172 24.9832 39.1911 24.9943C39.1649 25.0055 39.1367 25.0113 39.1082 25.0113C39.0797 25.0113 39.0514 25.0055 39.0253 24.9943C38.9992 24.9832 38.9757 24.9669 38.9562 24.9465L38.3481 24.3348C38.1467 24.3664 37.9414 24.3664 37.74 24.3348C37.468 24.3348 37.02 23.8642 37.196 24.6642C37.196 24.9308 37.324 25.0563 36.9719 25.0877C36.6199 25.119 35.5317 24.1466 35.2917 24.4603C35.2455 24.5468 35.1798 24.6219 35.0997 24.6799C35.4357 25.2289 37.916 28.4915 37.916 28.4915L37.772 28.5699ZM32.3793 25.2603C32.3793 24.8053 32.3793 24.821 32.5874 24.4603C32.7451 24.1134 32.8372 23.7414 32.8594 23.3623C32.8594 23.1583 32.6514 23.1113 32.5874 23.3623C32.5234 23.6133 32.3153 23.7073 32.2193 23.8956C31.8256 24.397 31.4622 24.9208 31.1311 25.4641C31.0191 25.6523 30.3951 26.0759 30.4911 26.3896C30.5871 26.7033 30.8591 26.5465 31.2112 26.1857C31.5632 25.8249 31.4512 25.9033 31.6112 25.9033C31.7713 25.9033 31.6112 26.17 31.9153 26.2484C32.2193 26.3269 32.3793 25.6367 32.3793 25.37" fill="white"/>
</g>
<defs>
<clipPath id="clip0_90_5584">
<rect width="83" height="100" fill="white"/>
</clipPath>
</defs>
</svg>
