<svg width="32" height="33" viewBox="0 0 32 33" fill="none" xmlns="http://www.w3.org/2000/svg">
<g clip-path="url(#clip0_116_1052)">
<path d="M15.9993 3.16667C23.3633 3.16667 29.3327 9.136 29.3327 16.5C29.3327 23.864 23.3633 29.8333 15.9993 29.8333C8.63535 29.8333 2.66602 23.864 2.66602 16.5C2.66602 9.136 8.63535 3.16667 15.9993 3.16667ZM15.9993 8.5C15.6457 8.5 15.3066 8.64048 15.0565 8.89053C14.8065 9.14058 14.666 9.47972 14.666 9.83334V16.5C14.6661 16.8536 14.8066 17.1927 15.0567 17.4427L19.0567 21.4427C19.3082 21.6855 19.645 21.8199 19.9945 21.8169C20.3441 21.8139 20.6786 21.6736 20.9258 21.4264C21.173 21.1792 21.3132 20.8448 21.3162 20.4952C21.3193 20.1456 21.1849 19.8088 20.942 19.5573L17.3327 15.948V9.83334C17.3327 9.47972 17.1922 9.14058 16.9422 8.89053C16.6921 8.64048 16.353 8.5 15.9993 8.5Z" fill="#E00F18"/>
</g>
<defs>
<clipPath id="clip0_116_1052">
<rect width="32" height="32" fill="white" transform="translate(0 0.5)"/>
</clipPath>
</defs>
</svg>
